<?xml version="1.0" encoding="utf-8"?>
<!-- Generator: Adobe Illustrator 26.4.1, SVG Export Plug-In . SVG Version: 6.00 Build 0)  -->
<svg version="1.1" id="Layer_1" xmlns:v="https://vecta.io/nano"
	 xmlns="http://www.w3.org/2000/svg" xmlns:xlink="http://www.w3.org/1999/xlink" x="0px" y="0px" viewBox="0 0 40 40"
	 style="enable-background:new 0 0 40 40;" xml:space="preserve">
<style type="text/css">
	.st0{fill:#B4B7C9;}
</style>
<path class="st0" d="M33.7,1.9H6.6C5,1.9,3.7,3.2,3.7,4.8v15.5c0,1.2,0.7,2.2,1.8,2.7c0.3,0.1,0.7,0.2,1.1,0.2h27.2
	c0.3,0,0.6,0,0.8-0.1c0.9-0.3,1.6-1,1.9-1.9c0.1-0.3,0.1-0.6,0.1-0.9V4.8C36.6,3.2,35.3,1.9,33.7,1.9z M7.5,21.2h-1
	c-0.5,0-1-0.4-1-1V4.8c0-0.5,0.4-1,1-1h1V21.2z M30.8,21.2H9.5V3.8h21.4V21.2z M34.7,20.2c0,0.2,0,0.4-0.1,0.5
	c-0.2,0.3-0.5,0.5-0.8,0.5h-1V3.8h1c0.5,0,1,0.4,1,1V20.2z"/>
<path class="st0" d="M36.5,27.1v7.9c0,1.6-1.3,2.9-2.9,2.9H6.4c-1.6,0-2.9-1.3-2.9-2.9v-7.9h1.9v7.9c0,0.5,0.4,1,1,1h1v-8.8h1.9v8.8
	h21.4v-8.8h1.9v8.8h1c0.5,0,1-0.4,1-1v-7.9H36.5z"/>
<g>
	<path id="B" class="st0" d="M21.1,15.4c0.5,0,1,0.4,1,1c0,0.5-0.4,1-1,1l0,0c-0.5,0-1-0.4-1-1C20.1,15.8,20.6,15.4,21.1,15.4z"/>
</g>
<g>
	<path id="B_00000093871680736104142400000004848428425139025321_" class="st0" d="M27.9,15.4c0.5,0,1,0.4,1,1c0,0.5-0.4,1-1,1l0,0
		c-0.5,0-1-0.4-1-1C26.9,15.8,27.3,15.4,27.9,15.4z"/>
</g>
<g>
	<path id="B_00000149353838536567688820000003756080038803338156_" class="st0" d="M13.5,15.4c0.5,0,1,0.4,1,1c0,0.5-0.4,1-1,1l0,0
		c-0.5,0-1-0.4-1-1C12.6,15.8,13,15.4,13.5,15.4z"/>
</g>
<g>
	<path id="B_00000057149785261118215320000009544289448953551775_" class="st0" d="M16.6,32.4c0.5,0,1,0.4,1,1c0,0.5-0.4,1-1,1l0,0
		c-0.5,0-1-0.4-1-1C15.6,32.9,16.1,32.4,16.6,32.4z"/>
</g>
<g>
	<path id="B_00000160180466789323059760000014365304446535355288_" class="st0" d="M20.1,32.4c0.5,0,1,0.4,1,1c0,0.5-0.4,1-1,1l0,0
		c-0.5,0-1-0.4-1-1C19.2,32.9,19.6,32.4,20.1,32.4z"/>
</g>
<g>
	<path id="B_00000074420973266001175370000013736178594406129585_" class="st0" d="M13.5,32.4c0.5,0,1,0.4,1,1c0,0.5-0.4,1-1,1l0,0
		c-0.5,0-1-0.4-1-1C12.6,32.9,13,32.4,13.5,32.4z"/>
</g>
</svg>
