<?xml version="1.0" encoding="utf-8"?>
<!-- Generator: Adobe Illustrator 26.4.1, SVG Export Plug-In . SVG Version: 6.00 Build 0)  -->
<svg version="1.1" id="Layer_1" xmlns:v="https://vecta.io/nano"
	 xmlns="http://www.w3.org/2000/svg" xmlns:xlink="http://www.w3.org/1999/xlink" x="0px" y="0px" viewBox="0 0 154 36"
	 style="enable-background:new 0 0 154 36;" xml:space="preserve">
<style type="text/css">
	.st0{fill:#B4B7C9;}
</style>
<g>
	<path class="st0" d="M46,5.4v2.9h-6v3.1h4.5v2.8H40v6h-3.6V5.4H46z"/>
	<path class="st0" d="M59.5,8.4v11.7h-3.6v-1.6c-0.4,0.5-0.9,0.9-1.5,1.2c-0.6,0.3-1.3,0.5-2.1,0.5c-0.9,0-1.7-0.2-2.4-0.6
		c-0.7-0.4-1.2-1-1.6-1.7c-0.4-0.8-0.6-1.6-0.6-2.7V8.4h3.6v6.4c0,0.8,0.2,1.4,0.6,1.8c0.4,0.4,1,0.7,1.6,0.7c0.7,0,1.3-0.2,1.7-0.7
		s0.6-1,0.6-1.8V8.4H59.5z"/>
	<path class="st0" d="M65.6,4.6v15.5H62V4.6H65.6z"/>
	<path class="st0" d="M68.3,11.1c0.5-0.9,1.2-1.6,2.1-2.1c0.9-0.5,1.9-0.7,3.1-0.7c1.5,0,2.7,0.4,3.7,1.2c1,0.8,1.6,1.9,1.9,3.3
		h-3.8c-0.3-0.9-0.9-1.3-1.9-1.3c-0.7,0-1.2,0.3-1.6,0.8c-0.4,0.5-0.6,1.2-0.6,2.2s0.2,1.7,0.6,2.2c0.4,0.5,0.9,0.8,1.6,0.8
		c0.9,0,1.5-0.4,1.9-1.3H79c-0.3,1.4-1,2.4-2,3.2c-1,0.8-2.2,1.2-3.7,1.2c-1.1,0-2.2-0.2-3.1-0.7c-0.9-0.5-1.6-1.2-2.1-2.1
		c-0.5-0.9-0.7-2-0.7-3.2C67.5,13.1,67.8,12,68.3,11.1z"/>
	<path class="st0" d="M86.1,8.9c0.6-0.4,1.3-0.6,2.1-0.6v3.8h-1c-0.9,0-1.6,0.2-2,0.6s-0.7,1.1-0.7,2v5.4h-3.6V8.4h3.6v2
		C85,9.7,85.5,9.2,86.1,8.9z"/>
	<path class="st0" d="M101.5,8.4v11.7h-3.6v-1.6c-0.4,0.5-0.9,0.9-1.5,1.2c-0.6,0.3-1.3,0.5-2.1,0.5c-0.9,0-1.7-0.2-2.4-0.6
		c-0.7-0.4-1.2-1-1.6-1.7c-0.4-0.8-0.6-1.6-0.6-2.7V8.4h3.6v6.4c0,0.8,0.2,1.4,0.6,1.8s1,0.7,1.6,0.7c0.7,0,1.3-0.2,1.7-0.7
		s0.6-1,0.6-1.8V8.4H101.5z"/>
	<path class="st0" d="M122.5,9.6c0.9,0.9,1.3,2.1,1.3,3.7v6.8h-3.6v-6.4c0-0.8-0.2-1.3-0.6-1.8c-0.4-0.4-0.9-0.6-1.6-0.6
		s-1.2,0.2-1.6,0.6c-0.4,0.4-0.6,1-0.6,1.8v6.4h-3.6v-6.4c0-0.8-0.2-1.3-0.6-1.8c-0.4-0.4-0.9-0.6-1.6-0.6s-1.2,0.2-1.6,0.6
		c-0.4,0.4-0.6,1-0.6,1.8v6.4h-3.6V8.4h3.6v1.5c0.4-0.5,0.8-0.9,1.4-1.2c0.6-0.3,1.3-0.4,2-0.4c0.9,0,1.7,0.2,2.4,0.6
		c0.7,0.4,1.2,0.9,1.6,1.6c0.4-0.6,1-1.2,1.7-1.6s1.5-0.6,2.3-0.6C120.5,8.3,121.7,8.7,122.5,9.6z"/>
</g>
<g>
	<path class="st0" d="M38.4,25.1v2.1h2.5v1h-2.5v2.2h2.8v1h-4v-7.3h4v1H38.4z"/>
	<path class="st0" d="M48.6,31.4h-1.2L43.9,26v5.4h-1.2v-7.3h1.2l3.6,5.4v-5.4h1.2V31.4z"/>
	<path class="st0" d="M55.5,26.2c-0.2-0.4-0.4-0.6-0.8-0.8c-0.3-0.2-0.7-0.3-1.2-0.3c-0.5,0-0.9,0.1-1.3,0.3
		c-0.4,0.2-0.7,0.5-0.9,0.9c-0.2,0.4-0.3,0.9-0.3,1.4c0,0.5,0.1,1,0.3,1.4c0.2,0.4,0.5,0.7,0.9,0.9c0.4,0.2,0.8,0.3,1.3,0.3
		c0.6,0,1.2-0.2,1.6-0.5s0.7-0.9,0.7-1.5h-2.7v-1h4v0.9c-0.1,0.6-0.3,1.1-0.6,1.6c-0.3,0.5-0.7,0.9-1.3,1.1
		c-0.5,0.3-1.1,0.4-1.7,0.4c-0.7,0-1.3-0.2-1.9-0.5c-0.6-0.3-1-0.8-1.3-1.3s-0.5-1.2-0.5-1.9c0-0.7,0.2-1.3,0.5-1.9s0.8-1,1.3-1.3
		c0.6-0.3,1.2-0.5,1.9-0.5c0.8,0,1.5,0.2,2.1,0.6s1,0.9,1.3,1.6H55.5z"/>
	<path class="st0" d="M59.5,24.1v7.3h-1.2v-7.3H59.5z"/>
	<path class="st0" d="M67,31.4h-1.2L62.2,26v5.4H61v-7.3h1.2l3.6,5.4v-5.4H67V31.4z"/>
	<path class="st0" d="M69.8,25.1v2.1h2.5v1h-2.5v2.2h2.8v1h-4v-7.3h4v1H69.8z"/>
	<path class="st0" d="M75.2,25.1v2.1h2.5v1h-2.5v2.2h2.8v1h-4v-7.3h4v1H75.2z"/>
	<path class="st0" d="M83.3,31.4l-1.7-2.9h-0.9v2.9h-1.2v-7.3H82c0.6,0,1,0.1,1.4,0.3s0.7,0.5,0.9,0.8c0.2,0.3,0.3,0.7,0.3,1.1
		c0,0.5-0.1,0.9-0.4,1.3s-0.7,0.7-1.3,0.8l1.8,3H83.3z M80.7,27.5H82c0.4,0,0.8-0.1,1-0.3c0.2-0.2,0.3-0.5,0.3-0.9
		c0-0.4-0.1-0.7-0.3-0.9s-0.6-0.3-1-0.3h-1.3V27.5z"/>
	<path class="st0" d="M87.3,24.1v7.3h-1.2v-7.3H87.3z"/>
	<path class="st0" d="M94.9,31.4h-1.2L90.1,26v5.4h-1.2v-7.3h1.2l3.6,5.4v-5.4h1.2V31.4z"/>
	<path class="st0" d="M101.7,26.2c-0.2-0.4-0.4-0.6-0.8-0.8c-0.3-0.2-0.7-0.3-1.2-0.3c-0.5,0-0.9,0.1-1.3,0.3s-0.7,0.5-0.9,0.9
		c-0.2,0.4-0.3,0.9-0.3,1.4c0,0.5,0.1,1,0.3,1.4c0.2,0.4,0.5,0.7,0.9,0.9s0.8,0.3,1.3,0.3c0.6,0,1.2-0.2,1.6-0.5s0.7-0.9,0.7-1.5
		h-2.7v-1h4v0.9c-0.1,0.6-0.3,1.1-0.6,1.6c-0.3,0.5-0.7,0.9-1.3,1.1s-1.1,0.4-1.7,0.4c-0.7,0-1.3-0.2-1.9-0.5
		c-0.6-0.3-1-0.8-1.3-1.3S96,28.5,96,27.7c0-0.7,0.2-1.3,0.5-1.9s0.8-1,1.3-1.3c0.6-0.3,1.2-0.5,1.9-0.5c0.8,0,1.5,0.2,2.1,0.6
		c0.6,0.4,1,0.9,1.3,1.6H101.7z"/>
	<path class="st0" d="M108.4,30.4h2.5v1h-3.6v-7.3h1.2V30.4z"/>
	<path class="st0" d="M113.1,30.4h2.5v1h-3.6v-7.3h1.2V30.4z"/>
	<path class="st0" d="M116.6,25.8c0.3-0.6,0.8-1,1.3-1.3c0.6-0.3,1.2-0.5,1.9-0.5c0.8,0,1.5,0.2,2.1,0.6c0.6,0.4,1,0.9,1.3,1.6h-1.4
		c-0.2-0.4-0.5-0.7-0.8-0.9c-0.3-0.2-0.7-0.3-1.2-0.3c-0.5,0-0.9,0.1-1.3,0.3c-0.4,0.2-0.7,0.5-0.9,0.9c-0.2,0.4-0.3,0.9-0.3,1.4
		c0,0.5,0.1,1,0.3,1.4c0.2,0.4,0.5,0.7,0.9,0.9c0.4,0.2,0.8,0.3,1.3,0.3c0.4,0,0.8-0.1,1.2-0.3c0.3-0.2,0.6-0.5,0.8-0.9h1.4
		c-0.3,0.7-0.7,1.2-1.3,1.6c-0.6,0.4-1.3,0.6-2.1,0.6c-0.7,0-1.3-0.2-1.9-0.5c-0.6-0.3-1-0.8-1.3-1.3s-0.5-1.2-0.5-1.9
		C116.1,27,116.3,26.4,116.6,25.8z"/>
</g>
</svg>
