<?xml version="1.0" encoding="utf-8"?>
<!-- Generator: Adobe Illustrator 26.4.1, SVG Export Plug-In . SVG Version: 6.00 Build 0)  -->
<svg version="1.1" id="Layer_1" xmlns:v="https://vecta.io/nano"
	 xmlns="http://www.w3.org/2000/svg" xmlns:xlink="http://www.w3.org/1999/xlink" x="0px" y="0px" viewBox="0 0 154 36"
	 style="enable-background:new 0 0 154 36;" xml:space="preserve">
<style type="text/css">
	.st0{display:none;}
	.st1{display:inline;}
	.st2{fill:#B4B7C9;}
	.st3{display:inline;fill:#B4B7C9;}
</style>
<g class="st0">
	<g class="st1">
		<path class="st2" d="M46,5.4v2.9h-6v3.1h4.5v2.8H40v6h-3.6V5.4H46z"/>
		<path class="st2" d="M59.5,8.4v11.7h-3.6v-1.6c-0.4,0.5-0.9,0.9-1.5,1.2c-0.6,0.3-1.3,0.5-2.1,0.5c-0.9,0-1.7-0.2-2.4-0.6
			c-0.7-0.4-1.2-1-1.6-1.7c-0.4-0.8-0.6-1.6-0.6-2.7V8.4h3.6v6.4c0,0.8,0.2,1.4,0.6,1.8c0.4,0.4,1,0.7,1.6,0.7
			c0.7,0,1.3-0.2,1.7-0.7s0.6-1,0.6-1.8V8.4H59.5z"/>
		<path class="st2" d="M65.6,4.6v15.5H62V4.6H65.6z"/>
		<path class="st2" d="M68.3,11.1c0.5-0.9,1.2-1.6,2.1-2.1c0.9-0.5,1.9-0.7,3.1-0.7c1.5,0,2.7,0.4,3.7,1.2c1,0.8,1.6,1.9,1.9,3.3
			h-3.8c-0.3-0.9-0.9-1.3-1.9-1.3c-0.7,0-1.2,0.3-1.6,0.8c-0.4,0.5-0.6,1.2-0.6,2.2s0.2,1.7,0.6,2.2c0.4,0.5,0.9,0.8,1.6,0.8
			c0.9,0,1.5-0.4,1.9-1.3H79c-0.3,1.4-1,2.4-2,3.2c-1,0.8-2.2,1.2-3.7,1.2c-1.1,0-2.2-0.2-3.1-0.7c-0.9-0.5-1.6-1.2-2.1-2.1
			c-0.5-0.9-0.7-2-0.7-3.2C67.5,13.1,67.8,12,68.3,11.1z"/>
		<path class="st2" d="M86.1,8.9c0.6-0.4,1.3-0.6,2.1-0.6v3.8h-1c-0.9,0-1.6,0.2-2,0.6s-0.7,1.1-0.7,2v5.4h-3.6V8.4h3.6v2
			C85,9.7,85.5,9.2,86.1,8.9z"/>
		<path class="st2" d="M101.5,8.4v11.7h-3.6v-1.6c-0.4,0.5-0.9,0.9-1.5,1.2c-0.6,0.3-1.3,0.5-2.1,0.5c-0.9,0-1.7-0.2-2.4-0.6
			c-0.7-0.4-1.2-1-1.6-1.7c-0.4-0.8-0.6-1.6-0.6-2.7V8.4h3.6v6.4c0,0.8,0.2,1.4,0.6,1.8s1,0.7,1.6,0.7c0.7,0,1.3-0.2,1.7-0.7
			s0.6-1,0.6-1.8V8.4H101.5z"/>
		<path class="st2" d="M122.5,9.6c0.9,0.9,1.3,2.1,1.3,3.7v6.8h-3.6v-6.4c0-0.8-0.2-1.3-0.6-1.8c-0.4-0.4-0.9-0.6-1.6-0.6
			s-1.2,0.2-1.6,0.6c-0.4,0.4-0.6,1-0.6,1.8v6.4h-3.6v-6.4c0-0.8-0.2-1.3-0.6-1.8c-0.4-0.4-0.9-0.6-1.6-0.6s-1.2,0.2-1.6,0.6
			c-0.4,0.4-0.6,1-0.6,1.8v6.4h-3.6V8.4h3.6v1.5c0.4-0.5,0.8-0.9,1.4-1.2c0.6-0.3,1.3-0.4,2-0.4c0.9,0,1.7,0.2,2.4,0.6
			c0.7,0.4,1.2,0.9,1.6,1.6c0.4-0.6,1-1.2,1.7-1.6s1.5-0.6,2.3-0.6C120.5,8.3,121.7,8.7,122.5,9.6z"/>
	</g>
	<g class="st1">
		<path class="st2" d="M38.4,25.1v2.1h2.5v1h-2.5v2.2h2.8v1h-4v-7.3h4v1H38.4z"/>
		<path class="st2" d="M48.6,31.4h-1.2L43.9,26v5.4h-1.2v-7.3h1.2l3.6,5.4v-5.4h1.2V31.4z"/>
		<path class="st2" d="M55.5,26.2c-0.2-0.4-0.4-0.6-0.8-0.8c-0.3-0.2-0.7-0.3-1.2-0.3c-0.5,0-0.9,0.1-1.3,0.3
			c-0.4,0.2-0.7,0.5-0.9,0.9c-0.2,0.4-0.3,0.9-0.3,1.4c0,0.5,0.1,1,0.3,1.4c0.2,0.4,0.5,0.7,0.9,0.9c0.4,0.2,0.8,0.3,1.3,0.3
			c0.6,0,1.2-0.2,1.6-0.5s0.7-0.9,0.7-1.5h-2.7v-1h4v0.9c-0.1,0.6-0.3,1.1-0.6,1.6c-0.3,0.5-0.7,0.9-1.3,1.1
			c-0.5,0.3-1.1,0.4-1.7,0.4c-0.7,0-1.3-0.2-1.9-0.5c-0.6-0.3-1-0.8-1.3-1.3s-0.5-1.2-0.5-1.9c0-0.7,0.2-1.3,0.5-1.9s0.8-1,1.3-1.3
			c0.6-0.3,1.2-0.5,1.9-0.5c0.8,0,1.5,0.2,2.1,0.6s1,0.9,1.3,1.6H55.5z"/>
		<path class="st2" d="M59.5,24.1v7.3h-1.2v-7.3H59.5z"/>
		<path class="st2" d="M67,31.4h-1.2L62.2,26v5.4H61v-7.3h1.2l3.6,5.4v-5.4H67V31.4z"/>
		<path class="st2" d="M69.8,25.1v2.1h2.5v1h-2.5v2.2h2.8v1h-4v-7.3h4v1H69.8z"/>
		<path class="st2" d="M75.2,25.1v2.1h2.5v1h-2.5v2.2h2.8v1h-4v-7.3h4v1H75.2z"/>
		<path class="st2" d="M83.3,31.4l-1.7-2.9h-0.9v2.9h-1.2v-7.3H82c0.6,0,1,0.1,1.4,0.3s0.7,0.5,0.9,0.8c0.2,0.3,0.3,0.7,0.3,1.1
			c0,0.5-0.1,0.9-0.4,1.3s-0.7,0.7-1.3,0.8l1.8,3H83.3z M80.7,27.5H82c0.4,0,0.8-0.1,1-0.3c0.2-0.2,0.3-0.5,0.3-0.9
			c0-0.4-0.1-0.7-0.3-0.9s-0.6-0.3-1-0.3h-1.3V27.5z"/>
		<path class="st2" d="M87.3,24.1v7.3h-1.2v-7.3H87.3z"/>
		<path class="st2" d="M94.9,31.4h-1.2L90.1,26v5.4h-1.2v-7.3h1.2l3.6,5.4v-5.4h1.2V31.4z"/>
		<path class="st2" d="M101.7,26.2c-0.2-0.4-0.4-0.6-0.8-0.8c-0.3-0.2-0.7-0.3-1.2-0.3c-0.5,0-0.9,0.1-1.3,0.3s-0.7,0.5-0.9,0.9
			c-0.2,0.4-0.3,0.9-0.3,1.4c0,0.5,0.1,1,0.3,1.4c0.2,0.4,0.5,0.7,0.9,0.9s0.8,0.3,1.3,0.3c0.6,0,1.2-0.2,1.6-0.5s0.7-0.9,0.7-1.5
			h-2.7v-1h4v0.9c-0.1,0.6-0.3,1.1-0.6,1.6c-0.3,0.5-0.7,0.9-1.3,1.1s-1.1,0.4-1.7,0.4c-0.7,0-1.3-0.2-1.9-0.5
			c-0.6-0.3-1-0.8-1.3-1.3S96,28.5,96,27.7c0-0.7,0.2-1.3,0.5-1.9s0.8-1,1.3-1.3c0.6-0.3,1.2-0.5,1.9-0.5c0.8,0,1.5,0.2,2.1,0.6
			c0.6,0.4,1,0.9,1.3,1.6H101.7z"/>
		<path class="st2" d="M108.4,30.4h2.5v1h-3.6v-7.3h1.2V30.4z"/>
		<path class="st2" d="M113.1,30.4h2.5v1h-3.6v-7.3h1.2V30.4z"/>
		<path class="st2" d="M116.6,25.8c0.3-0.6,0.8-1,1.3-1.3c0.6-0.3,1.2-0.5,1.9-0.5c0.8,0,1.5,0.2,2.1,0.6c0.6,0.4,1,0.9,1.3,1.6
			h-1.4c-0.2-0.4-0.5-0.7-0.8-0.9c-0.3-0.2-0.7-0.3-1.2-0.3c-0.5,0-0.9,0.1-1.3,0.3c-0.4,0.2-0.7,0.5-0.9,0.9
			c-0.2,0.4-0.3,0.9-0.3,1.4c0,0.5,0.1,1,0.3,1.4c0.2,0.4,0.5,0.7,0.9,0.9c0.4,0.2,0.8,0.3,1.3,0.3c0.4,0,0.8-0.1,1.2-0.3
			c0.3-0.2,0.6-0.5,0.8-0.9h1.4c-0.3,0.7-0.7,1.2-1.3,1.6c-0.6,0.4-1.3,0.6-2.1,0.6c-0.7,0-1.3-0.2-1.9-0.5c-0.6-0.3-1-0.8-1.3-1.3
			s-0.5-1.2-0.5-1.9C116.1,27,116.3,26.4,116.6,25.8z"/>
	</g>
</g>
<g class="st0">
	<g class="st1">
		<path class="st2" d="M46,4.8v14.7h-3.6v-6.1h-5.6v6.1h-3.6V4.8h3.6v5.8h5.6V4.8H46z"/>
		<path class="st2" d="M50.8,19c-0.9-0.5-1.6-1.2-2.2-2.1c-0.5-0.9-0.8-2-0.8-3.2c0-1.2,0.3-2.3,0.8-3.2c0.5-0.9,1.3-1.6,2.2-2.1
			c0.9-0.5,2-0.7,3.1-0.7c1.1,0,2.2,0.2,3.1,0.7c0.9,0.5,1.7,1.2,2.2,2.1c0.5,0.9,0.8,2,0.8,3.2s-0.3,2.3-0.8,3.2
			c-0.5,0.9-1.3,1.6-2.2,2.1s-2,0.7-3.1,0.7C52.7,19.7,51.7,19.4,50.8,19z M55.6,15.8c0.5-0.5,0.7-1.2,0.7-2.2s-0.2-1.7-0.7-2.2
			c-0.5-0.5-1-0.8-1.7-0.8c-0.7,0-1.3,0.2-1.7,0.7c-0.5,0.5-0.7,1.2-0.7,2.2c0,0.9,0.2,1.7,0.7,2.2c0.5,0.5,1,0.8,1.7,0.8
			C54.6,16.6,55.1,16.3,55.6,15.8z"/>
		<path class="st2" d="M65.5,4v15.5h-3.6V4H65.5z"/>
		<path class="st2" d="M68.4,6c-0.4-0.4-0.6-0.8-0.6-1.4c0-0.6,0.2-1,0.6-1.4c0.4-0.4,0.9-0.6,1.5-0.6c0.6,0,1.1,0.2,1.5,0.6
			C71.8,3.6,72,4.1,72,4.6c0,0.5-0.2,1-0.6,1.4c-0.4,0.4-0.9,0.6-1.5,0.6C69.3,6.6,68.8,6.4,68.4,6z M71.7,7.8v11.7h-3.6V7.8H71.7z"
			/>
		<path class="st2" d="M74.3,10.5c0.5-0.9,1.2-1.6,2.1-2.1c0.9-0.5,1.9-0.7,3.1-0.7c1.5,0,2.7,0.4,3.7,1.2s1.6,1.9,1.9,3.3h-3.8
			c-0.3-0.9-0.9-1.3-1.9-1.3c-0.7,0-1.2,0.3-1.6,0.8c-0.4,0.5-0.6,1.2-0.6,2.2s0.2,1.7,0.6,2.2c0.4,0.5,0.9,0.8,1.6,0.8
			c0.9,0,1.5-0.4,1.9-1.3h3.8c-0.3,1.4-1,2.5-2,3.2s-2.2,1.2-3.7,1.2c-1.1,0-2.2-0.2-3.1-0.7c-0.9-0.5-1.6-1.2-2.1-2.1
			c-0.5-0.9-0.7-2-0.7-3.2C73.6,12.4,73.8,11.4,74.3,10.5z"/>
		<path class="st2" d="M97.5,9c0.8,0.9,1.2,2.1,1.2,3.7v6.8h-3.6v-6.4c0-0.8-0.2-1.4-0.6-1.8c-0.4-0.4-1-0.7-1.6-0.7
			c-0.7,0-1.2,0.2-1.6,0.7s-0.6,1-0.6,1.8v6.4H87V4h3.6v5.4c0.4-0.5,0.9-0.9,1.5-1.2s1.3-0.5,2.1-0.5C95.6,7.7,96.6,8.1,97.5,9z"/>
		<path class="st2" d="M112.2,14.5H104c0.1,0.7,0.3,1.3,0.7,1.7c0.4,0.4,0.9,0.6,1.5,0.6c0.9,0,1.5-0.4,1.9-1.1h3.8
			c-0.2,0.8-0.5,1.5-1.1,2.1c-0.5,0.6-1.2,1.1-1.9,1.4c-0.8,0.4-1.6,0.5-2.6,0.5c-1.1,0-2.2-0.2-3.1-0.7c-0.9-0.5-1.6-1.2-2.1-2.1
			c-0.5-0.9-0.8-2-0.8-3.2c0-1.2,0.2-2.3,0.7-3.2c0.5-0.9,1.2-1.6,2.1-2.1s1.9-0.7,3.1-0.7c1.1,0,2.1,0.2,3,0.7s1.6,1.2,2.1,2
			c0.5,0.9,0.7,1.9,0.7,3.1C112.2,13.8,112.2,14.2,112.2,14.5z M108.5,12.5c0-0.6-0.2-1.1-0.6-1.5c-0.4-0.4-0.9-0.5-1.6-0.5
			c-0.6,0-1.1,0.2-1.5,0.5s-0.7,0.8-0.8,1.5H108.5z"/>
		<path class="st2" d="M121.3,19.5l-3.6-4.9v4.9h-3.6V4h3.6v8.6l3.5-4.8h4.4l-4.9,5.9l4.9,5.8H121.3z"/>
	</g>
	<g class="st1">
		<path class="st2" d="M35.3,26.7v2.1h2.8v1.3h-2.8v2.2h3.2v1.4h-4.9v-8.4h4.9v1.4H35.3z"/>
		<path class="st2" d="M41.7,32.4h2.8v1.3H40v-8.4h1.7V32.4z"/>
		<path class="st2" d="M47.2,26.7v2.1H50v1.3h-2.8v2.2h3.2v1.4h-4.9v-8.4h4.9v1.4H47.2z"/>
		<path class="st2" d="M52.1,27.3c0.4-0.7,0.9-1.2,1.5-1.5c0.6-0.4,1.4-0.5,2.2-0.5c0.9,0,1.8,0.2,2.5,0.7s1.2,1.1,1.5,2h-1.9
			c-0.2-0.4-0.5-0.7-0.8-0.9c-0.3-0.2-0.8-0.3-1.2-0.3c-0.5,0-0.9,0.1-1.3,0.3s-0.7,0.5-0.9,1s-0.3,0.9-0.3,1.5c0,0.6,0.1,1,0.3,1.5
			c0.2,0.4,0.5,0.7,0.9,1s0.8,0.3,1.3,0.3c0.5,0,0.9-0.1,1.2-0.3c0.3-0.2,0.6-0.5,0.8-0.9h1.9c-0.3,0.9-0.8,1.5-1.5,2
			c-0.7,0.5-1.5,0.7-2.5,0.7c-0.8,0-1.5-0.2-2.2-0.5c-0.6-0.4-1.2-0.9-1.5-1.5s-0.6-1.4-0.6-2.2C51.5,28.7,51.7,28,52.1,27.3z"/>
		<path class="st2" d="M66.8,25.4v1.4h-2.2v7h-1.7v-7h-2.2v-1.4H66.8z"/>
		<path class="st2" d="M72.4,33.7l-1.8-3.3h-0.8v3.3h-1.7v-8.4h3.1c0.6,0,1.2,0.1,1.7,0.3s0.8,0.5,1,0.9c0.2,0.4,0.3,0.8,0.3,1.3
			c0,0.6-0.2,1.1-0.5,1.5c-0.3,0.4-0.8,0.8-1.4,0.9l2,3.4H72.4z M69.8,29.2h1.4c0.5,0,0.8-0.1,1-0.3c0.2-0.2,0.3-0.5,0.3-0.9
			c0-0.4-0.1-0.7-0.3-0.9c-0.2-0.2-0.6-0.3-1-0.3h-1.4V29.2z"/>
		<path class="st2" d="M77.4,25.4v8.4h-1.7v-8.4H77.4z"/>
		<path class="st2" d="M79.2,27.3c0.4-0.7,0.9-1.2,1.5-1.5c0.6-0.4,1.4-0.5,2.2-0.5c0.9,0,1.8,0.2,2.5,0.7s1.2,1.1,1.5,2h-1.9
			c-0.2-0.4-0.5-0.7-0.8-0.9c-0.3-0.2-0.8-0.3-1.2-0.3c-0.5,0-0.9,0.1-1.3,0.3s-0.7,0.5-0.9,1s-0.3,0.9-0.3,1.5c0,0.6,0.1,1,0.3,1.5
			c0.2,0.4,0.5,0.7,0.9,1s0.8,0.3,1.3,0.3c0.5,0,0.9-0.1,1.2-0.3c0.3-0.2,0.6-0.5,0.8-0.9h1.9c-0.3,0.9-0.8,1.5-1.5,2
			c-0.7,0.5-1.5,0.7-2.5,0.7c-0.8,0-1.5-0.2-2.2-0.5c-0.6-0.4-1.2-0.9-1.5-1.5c-0.4-0.6-0.6-1.4-0.6-2.2
			C78.7,28.7,78.9,28,79.2,27.3z"/>
		<path class="st2" d="M93.5,32.1h-3.3l-0.6,1.6h-1.8l3-8.4h2l3,8.4H94L93.5,32.1z M93,30.8l-1.2-3.5l-1.2,3.5H93z"/>
		<path class="st2" d="M98.6,32.4h2.8v1.3h-4.4v-8.4h1.7V32.4z"/>
		<path class="st2" d="M107,26.7v2.1h2.8v1.3H107v2.2h3.2v1.4h-4.9v-8.4h4.9v1.4H107z"/>
		<path class="st2" d="M118.8,33.7h-1.7l-3.8-5.7v5.7h-1.7v-8.4h1.7l3.8,5.8v-5.8h1.7V33.7z"/>
		<path class="st2" d="M126.3,27.9c-0.2-0.4-0.5-0.6-0.8-0.8c-0.3-0.2-0.7-0.3-1.2-0.3c-0.5,0-0.9,0.1-1.3,0.3
			c-0.4,0.2-0.7,0.5-0.9,1c-0.2,0.4-0.3,0.9-0.3,1.4c0,0.6,0.1,1,0.3,1.5c0.2,0.4,0.5,0.7,0.9,1c0.4,0.2,0.8,0.3,1.4,0.3
			c0.6,0,1.2-0.2,1.6-0.5c0.4-0.3,0.7-0.8,0.8-1.4h-2.9v-1.3h4.5v1.5c-0.1,0.6-0.4,1.1-0.7,1.6s-0.8,0.9-1.4,1.2
			c-0.6,0.3-1.2,0.4-2,0.4c-0.8,0-1.5-0.2-2.2-0.5c-0.7-0.4-1.2-0.9-1.5-1.5c-0.4-0.6-0.6-1.4-0.6-2.2c0-0.8,0.2-1.6,0.6-2.2
			c0.4-0.7,0.9-1.2,1.5-1.5c0.7-0.4,1.4-0.5,2.2-0.5c0.9,0,1.8,0.2,2.5,0.7c0.7,0.5,1.2,1.1,1.4,1.9H126.3z"/>
		<path class="st2" d="M129.7,33.5c-0.2-0.2-0.3-0.4-0.3-0.7c0-0.3,0.1-0.5,0.3-0.7c0.2-0.2,0.4-0.3,0.8-0.3c0.3,0,0.5,0.1,0.7,0.3
			c0.2,0.2,0.3,0.4,0.3,0.7c0,0.3-0.1,0.5-0.3,0.7c-0.2,0.2-0.4,0.3-0.7,0.3C130.1,33.8,129.9,33.7,129.7,33.5z"/>
	</g>
</g>
<g class="st0">
	<g class="st1">
		<path class="st2" d="M53.8,10.6c-0.4,0.7-1,1.3-1.8,1.7c-0.8,0.4-1.8,0.7-3,0.7h-2.2v5.3h-3.6V3.5H49c1.2,0,2.2,0.2,3,0.6
			c0.8,0.4,1.4,1,1.8,1.7c0.4,0.7,0.6,1.5,0.6,2.5C54.4,9.1,54.2,9.9,53.8,10.6z M50.2,9.6c0.3-0.3,0.5-0.8,0.5-1.4s-0.2-1-0.5-1.4
			s-0.8-0.5-1.5-0.5h-2v3.7h2C49.4,10.1,49.9,9.9,50.2,9.6z"/>
		<path class="st2" d="M67.2,13.2h-8.1c0.1,0.7,0.3,1.3,0.7,1.7c0.4,0.4,0.9,0.6,1.5,0.6c0.9,0,1.5-0.4,1.9-1.1H67
			c-0.2,0.8-0.5,1.5-1.1,2.1c-0.5,0.6-1.2,1.1-1.9,1.4c-0.8,0.4-1.6,0.5-2.6,0.5c-1.1,0-2.2-0.2-3.1-0.7c-0.9-0.5-1.6-1.2-2.1-2.1
			c-0.5-0.9-0.8-2-0.8-3.2c0-1.2,0.2-2.3,0.7-3.2s1.2-1.6,2.1-2.1c0.9-0.5,1.9-0.7,3.1-0.7c1.1,0,2.1,0.2,3,0.7
			c0.9,0.5,1.6,1.2,2.1,2c0.5,0.9,0.7,1.9,0.7,3.1C67.3,12.5,67.3,12.9,67.2,13.2z M63.6,11.2c0-0.6-0.2-1.1-0.6-1.5
			c-0.4-0.4-0.9-0.5-1.6-0.5c-0.6,0-1.1,0.2-1.5,0.5s-0.7,0.8-0.8,1.5H63.6z"/>
		<path class="st2" d="M74.4,7c0.6-0.4,1.3-0.6,2.1-0.6v3.8h-1c-0.9,0-1.6,0.2-2,0.6s-0.7,1.1-0.7,2v5.4h-3.6V6.5h3.6v2
			C73.2,7.8,73.7,7.3,74.4,7z"/>
		<path class="st2" d="M84.1,9.5h-1.9v8.7h-3.6V9.5h-1.3v-3h1.3V6.2c0-1.4,0.4-2.5,1.2-3.3s2-1.1,3.6-1.1c0.3,0,0.5,0,0.6,0v3
			c-0.7,0-1.2,0.1-1.4,0.3c-0.3,0.2-0.4,0.7-0.4,1.3v0.1h1.9V9.5z"/>
		<path class="st2" d="M96.7,13.2h-8.1c0.1,0.7,0.3,1.3,0.7,1.7c0.4,0.4,0.9,0.6,1.5,0.6c0.9,0,1.5-0.4,1.9-1.1h3.8
			c-0.2,0.8-0.5,1.5-1.1,2.1c-0.5,0.6-1.2,1.1-1.9,1.4c-0.8,0.4-1.6,0.5-2.6,0.5c-1.1,0-2.2-0.2-3.1-0.7c-0.9-0.5-1.6-1.2-2.1-2.1
			c-0.5-0.9-0.8-2-0.8-3.2c0-1.2,0.2-2.3,0.7-3.2c0.5-0.9,1.2-1.6,2.1-2.1s1.9-0.7,3.1-0.7c1.1,0,2.1,0.2,3,0.7s1.6,1.2,2.1,2
			c0.5,0.9,0.7,1.9,0.7,3.1C96.8,12.5,96.8,12.9,96.7,13.2z M93.1,11.2c0-0.6-0.2-1.1-0.6-1.5c-0.4-0.4-0.9-0.5-1.6-0.5
			c-0.6,0-1.1,0.2-1.5,0.5s-0.7,0.8-0.8,1.5H93.1z"/>
		<path class="st2" d="M98.7,9.2c0.5-0.9,1.2-1.6,2.1-2.1c0.9-0.5,1.9-0.7,3.1-0.7c1.5,0,2.7,0.4,3.7,1.2s1.6,1.9,1.9,3.3h-3.8
			c-0.3-0.9-0.9-1.3-1.9-1.3c-0.7,0-1.2,0.3-1.6,0.8c-0.4,0.5-0.6,1.2-0.6,2.2s0.2,1.7,0.6,2.2c0.4,0.5,0.9,0.8,1.6,0.8
			c0.9,0,1.5-0.4,1.9-1.3h3.8c-0.3,1.4-1,2.5-2,3.2s-2.2,1.2-3.7,1.2c-1.1,0-2.2-0.2-3.1-0.7c-0.9-0.5-1.6-1.2-2.1-2.1
			c-0.5-0.9-0.7-2-0.7-3.2C98,11.2,98.2,10.1,98.7,9.2z"/>
		<path class="st2" d="M117.9,15.2v3h-1.8c-1.3,0-2.3-0.3-3-1c-0.7-0.6-1.1-1.7-1.1-3.1V9.5h-1.4v-3h1.4V3.7h3.6v2.9h2.4v3h-2.4v4.7
			c0,0.4,0.1,0.6,0.3,0.8c0.2,0.2,0.4,0.2,0.8,0.2H117.9z"/>
	</g>
	<g class="st1">
		<path class="st2" d="M45.3,25.4v2.1h2.8v1.3h-2.8v2.2h3.2v1.4h-4.9v-8.4h4.9v1.4H45.3z"/>
		<path class="st2" d="M55.6,26.5c0.5,0.5,0.7,1.2,0.7,2.1v3.9h-1.7v-3.7c0-0.5-0.1-0.9-0.4-1.2c-0.3-0.3-0.6-0.4-1.1-0.4
			c-0.5,0-0.8,0.1-1.1,0.4c-0.3,0.3-0.4,0.7-0.4,1.2v3.7H50v-6.6h1.7v0.8c0.2-0.3,0.5-0.5,0.9-0.7c0.3-0.2,0.7-0.2,1.1-0.2
			C54.5,25.7,55.1,26,55.6,26.5z"/>
		<path class="st2" d="M59.9,27.2v3.2c0,0.2,0.1,0.4,0.2,0.5s0.3,0.1,0.5,0.1h0.8v1.4h-1.1c-1.4,0-2.1-0.7-2.1-2.1v-3.2h-0.8v-1.4
			h0.8v-1.6h1.7v1.6h1.5v1.4H59.9z"/>
		<path class="st2" d="M68.7,29.6h-4.9c0,0.5,0.2,0.9,0.5,1.1s0.7,0.4,1.1,0.4c0.6,0,1.1-0.3,1.3-0.8h1.8C68.4,31,68,31.5,67.5,32
			s-1.2,0.6-2,0.6c-0.6,0-1.2-0.1-1.7-0.4c-0.5-0.3-0.9-0.7-1.2-1.2c-0.3-0.5-0.4-1.1-0.4-1.8c0-0.7,0.1-1.3,0.4-1.8
			c0.3-0.5,0.7-0.9,1.2-1.2c0.5-0.3,1.1-0.4,1.7-0.4c0.6,0,1.2,0.1,1.7,0.4s0.9,0.7,1.2,1.2s0.4,1.1,0.4,1.7
			C68.8,29.2,68.7,29.5,68.7,29.6z M67,28.5c0-0.4-0.2-0.8-0.5-1c-0.3-0.3-0.7-0.4-1.1-0.4c-0.4,0-0.8,0.1-1,0.4s-0.5,0.6-0.5,1H67z
			"/>
		<path class="st2" d="M72.5,26c0.3-0.2,0.7-0.3,1.2-0.3v1.8h-0.4c-0.5,0-0.9,0.1-1.2,0.4s-0.4,0.7-0.4,1.3v3.3H70v-6.6h1.7v1
			C71.9,26.5,72.2,26.2,72.5,26z"/>
		<path class="st2" d="M77.4,26c0.4-0.2,0.8-0.3,1.3-0.3c0.6,0,1.1,0.1,1.5,0.4c0.5,0.3,0.8,0.7,1.1,1.2s0.4,1.1,0.4,1.8
			c0,0.7-0.1,1.3-0.4,1.8s-0.6,0.9-1.1,1.2c-0.5,0.3-1,0.4-1.5,0.4c-0.5,0-0.9-0.1-1.3-0.3c-0.4-0.2-0.7-0.5-0.9-0.8v4.1h-1.7v-9.8
			h1.7v1C76.7,26.5,77,26.2,77.4,26z M79.8,28.1c-0.2-0.3-0.4-0.5-0.6-0.7c-0.3-0.2-0.6-0.2-0.9-0.2c-0.3,0-0.6,0.1-0.9,0.2
			c-0.3,0.2-0.5,0.4-0.6,0.7c-0.2,0.3-0.2,0.6-0.2,1c0,0.4,0.1,0.7,0.2,1s0.4,0.5,0.6,0.7c0.3,0.2,0.6,0.2,0.9,0.2
			c0.3,0,0.6-0.1,0.9-0.2s0.5-0.4,0.6-0.7c0.2-0.3,0.2-0.6,0.2-1.1C80,28.7,80,28.4,79.8,28.1z"/>
		<path class="st2" d="M85.5,26c0.3-0.2,0.7-0.3,1.2-0.3v1.8h-0.4c-0.5,0-0.9,0.1-1.2,0.4c-0.3,0.2-0.4,0.7-0.4,1.3v3.3H83v-6.6h1.7
			v1C84.9,26.5,85.2,26.2,85.5,26z"/>
		<path class="st2" d="M87.9,24.7c-0.2-0.2-0.3-0.4-0.3-0.7c0-0.3,0.1-0.5,0.3-0.7c0.2-0.2,0.4-0.3,0.7-0.3s0.5,0.1,0.7,0.3
			s0.3,0.4,0.3,0.7c0,0.3-0.1,0.5-0.3,0.7C89.2,24.9,89,25,88.7,25S88.1,24.9,87.9,24.7z M89.5,25.8v6.6h-1.7v-6.6H89.5z"/>
		<path class="st2" d="M92.2,32.3c-0.4-0.2-0.8-0.5-1-0.8s-0.4-0.7-0.4-1.1h1.7c0,0.3,0.2,0.5,0.4,0.6s0.5,0.3,0.8,0.3
			c0.3,0,0.6-0.1,0.8-0.2c0.2-0.1,0.3-0.3,0.3-0.5c0-0.2-0.1-0.4-0.3-0.5c-0.2-0.1-0.6-0.2-1-0.4c-0.5-0.1-0.9-0.2-1.2-0.4
			c-0.3-0.1-0.6-0.3-0.8-0.6c-0.2-0.3-0.3-0.6-0.3-1.1c0-0.4,0.1-0.7,0.3-1c0.2-0.3,0.5-0.5,0.9-0.7c0.4-0.2,0.9-0.3,1.4-0.3
			c0.8,0,1.4,0.2,1.9,0.6c0.5,0.4,0.7,0.9,0.8,1.6h-1.6c0-0.3-0.1-0.5-0.3-0.6c-0.2-0.2-0.5-0.2-0.8-0.2c-0.3,0-0.5,0.1-0.7,0.2
			c-0.2,0.1-0.2,0.3-0.2,0.5c0,0.2,0.1,0.4,0.3,0.5c0.2,0.1,0.6,0.2,1,0.4c0.5,0.1,0.9,0.2,1.2,0.4c0.3,0.1,0.6,0.3,0.8,0.6
			c0.2,0.3,0.3,0.6,0.4,1.1c0,0.4-0.1,0.7-0.3,1c-0.2,0.3-0.5,0.5-0.9,0.7c-0.4,0.2-0.9,0.3-1.4,0.3C93.2,32.6,92.7,32.5,92.2,32.3z
			"/>
		<path class="st2" d="M103.8,29.6H99c0,0.5,0.2,0.9,0.5,1.1s0.7,0.4,1.1,0.4c0.6,0,1.1-0.3,1.3-0.8h1.8c-0.2,0.6-0.6,1.2-1.1,1.6
			c-0.5,0.4-1.2,0.6-2,0.6c-0.6,0-1.2-0.1-1.7-0.4c-0.5-0.3-0.9-0.7-1.2-1.2c-0.3-0.5-0.4-1.1-0.4-1.8c0-0.7,0.1-1.3,0.4-1.8
			c0.3-0.5,0.7-0.9,1.2-1.2c0.5-0.3,1.1-0.4,1.7-0.4c0.6,0,1.2,0.1,1.7,0.4s0.9,0.7,1.2,1.2c0.3,0.5,0.4,1.1,0.4,1.7
			C103.9,29.2,103.9,29.5,103.8,29.6z M102.1,28.5c0-0.4-0.2-0.8-0.5-1c-0.3-0.3-0.7-0.4-1.1-0.4c-0.4,0-0.8,0.1-1,0.4
			s-0.5,0.6-0.5,1H102.1z"/>
		<path class="st2" d="M106.2,32.3c-0.4-0.2-0.8-0.5-1-0.8s-0.4-0.7-0.4-1.1h1.7c0,0.3,0.2,0.5,0.4,0.6s0.5,0.3,0.8,0.3
			c0.3,0,0.6-0.1,0.8-0.2c0.2-0.1,0.3-0.3,0.3-0.5c0-0.2-0.1-0.4-0.3-0.5c-0.2-0.1-0.6-0.2-1-0.4c-0.5-0.1-0.9-0.2-1.2-0.4
			c-0.3-0.1-0.6-0.3-0.8-0.6c-0.2-0.3-0.3-0.6-0.3-1.1c0-0.4,0.1-0.7,0.3-1c0.2-0.3,0.5-0.5,0.9-0.7c0.4-0.2,0.9-0.3,1.4-0.3
			c0.8,0,1.4,0.2,1.9,0.6c0.5,0.4,0.7,0.9,0.8,1.6h-1.6c0-0.3-0.1-0.5-0.3-0.6c-0.2-0.2-0.5-0.2-0.8-0.2c-0.3,0-0.5,0.1-0.7,0.2
			c-0.2,0.1-0.2,0.3-0.2,0.5c0,0.2,0.1,0.4,0.3,0.5c0.2,0.1,0.6,0.2,1,0.4c0.5,0.1,0.9,0.2,1.2,0.4c0.3,0.1,0.6,0.3,0.8,0.6
			c0.2,0.3,0.3,0.6,0.4,1.1c0,0.4-0.1,0.7-0.3,1c-0.2,0.3-0.5,0.5-0.9,0.7c-0.4,0.2-0.9,0.3-1.4,0.3
			C107.1,32.6,106.6,32.5,106.2,32.3z"/>
	</g>
</g>
<g>
	<g>
		<path class="st2" d="M44.3,3.3c1.2,0.6,2.1,1.5,2.7,2.6c0.6,1.1,1,2.4,1,3.9c0,1.4-0.3,2.7-1,3.8s-1.5,2-2.7,2.6s-2.5,0.9-4.1,0.9
			h-5.5V2.3h5.5C41.8,2.3,43.2,2.6,44.3,3.3z M43.2,12.9c0.8-0.7,1.1-1.8,1.1-3.1c0-1.4-0.4-2.4-1.1-3.2c-0.8-0.8-1.8-1.1-3.2-1.1
			h-1.7V14H40C41.4,14,42.4,13.6,43.2,12.9z"/>
		<path class="st2" d="M50,8c0.5-0.9,1.1-1.6,1.9-2.1s1.7-0.7,2.6-0.7c0.8,0,1.6,0.2,2.2,0.5s1.1,0.8,1.4,1.3V5.4h3.6v11.7h-3.6
			v-1.7c-0.3,0.5-0.8,1-1.5,1.3c-0.6,0.3-1.3,0.5-2.2,0.5c-1,0-1.8-0.2-2.6-0.7C51,16,50.4,15.3,50,14.4c-0.5-0.9-0.7-2-0.7-3.2
			S49.5,8.9,50,8z M57.3,9.1c-0.5-0.5-1.1-0.8-1.8-0.8c-0.7,0-1.3,0.3-1.8,0.8c-0.5,0.5-0.7,1.2-0.7,2.1s0.2,1.6,0.7,2.1
			s1.1,0.8,1.8,0.8c0.7,0,1.3-0.3,1.8-0.8c0.5-0.5,0.7-1.2,0.7-2.1S57.8,9.6,57.3,9.1z"/>
		<path class="st2" d="M70.8,14v3H69c-1.3,0-2.3-0.3-3-1c-0.7-0.6-1.1-1.7-1.1-3.1V8.3h-1.4v-3h1.4V2.5h3.6v2.9h2.4v3h-2.4V13
			c0,0.4,0.1,0.6,0.3,0.8c0.2,0.2,0.4,0.2,0.8,0.2H70.8z"/>
		<path class="st2" d="M72.7,8c0.5-0.9,1.1-1.6,1.9-2.1s1.7-0.7,2.6-0.7c0.8,0,1.6,0.2,2.2,0.5C80,6,80.5,6.5,80.8,7V5.4h3.6v11.7
			h-3.6v-1.7c-0.4,0.5-0.8,1-1.5,1.3s-1.3,0.5-2.2,0.5c-1,0-1.8-0.2-2.6-0.7c-0.8-0.5-1.4-1.2-1.9-2.1c-0.5-0.9-0.7-2-0.7-3.2
			S72.3,8.9,72.7,8z M80.1,9.1c-0.5-0.5-1.1-0.8-1.8-0.8S77,8.6,76.5,9.1c-0.5,0.5-0.7,1.2-0.7,2.1s0.2,1.6,0.7,2.1s1.1,0.8,1.8,0.8
			s1.3-0.3,1.8-0.8s0.7-1.2,0.7-2.1S80.6,9.6,80.1,9.1z"/>
		<path class="st2" d="M92.1,5.7c0.6-0.3,1.3-0.5,2.2-0.5c1,0,1.8,0.2,2.6,0.7s1.4,1.2,1.9,2.1s0.7,2,0.7,3.2s-0.2,2.3-0.7,3.2
			c-0.5,0.9-1.1,1.6-1.9,2.1c-0.8,0.5-1.7,0.7-2.6,0.7c-0.8,0-1.5-0.2-2.2-0.5S91,16,90.6,15.4v7.2H87V5.4h3.6V7
			C91,6.5,91.5,6,92.1,5.7z M95,9.1c-0.5-0.5-1.1-0.8-1.8-0.8c-0.7,0-1.3,0.3-1.8,0.8c-0.5,0.5-0.7,1.2-0.7,2.1s0.2,1.6,0.7,2.1
			s1.1,0.8,1.8,0.8c0.7,0,1.3-0.3,1.8-0.8s0.8-1.2,0.8-2.1S95.5,9.6,95,9.1z"/>
		<path class="st2" d="M101.3,8c0.5-0.9,1.1-1.6,1.9-2.1s1.7-0.7,2.6-0.7c0.8,0,1.6,0.2,2.2,0.5c0.6,0.3,1.1,0.8,1.4,1.3V5.4h3.6
			v11.7h-3.6v-1.7c-0.4,0.5-0.8,1-1.5,1.3s-1.3,0.5-2.2,0.5c-1,0-1.8-0.2-2.6-0.7c-0.8-0.5-1.4-1.2-1.9-2.1c-0.5-0.9-0.7-2-0.7-3.2
			S100.8,8.9,101.3,8z M108.6,9.1c-0.5-0.5-1.1-0.8-1.8-0.8s-1.3,0.3-1.8,0.8c-0.5,0.5-0.7,1.2-0.7,2.1s0.2,1.6,0.7,2.1
			s1.1,0.8,1.8,0.8s1.3-0.3,1.8-0.8s0.7-1.2,0.7-2.1S109.1,9.6,108.6,9.1z"/>
		<path class="st2" d="M122.7,17.1l-3.6-4.9v4.9h-3.6V1.5h3.6v8.6l3.5-4.8h4.4l-4.9,5.9l4.9,5.8H122.7z"/>
	</g>
	<g>
		<path class="st2" d="M36.5,31.1c-0.5-0.2-0.8-0.5-1.1-0.9c-0.3-0.4-0.4-0.8-0.4-1.3h1.8c0,0.3,0.1,0.6,0.4,0.8
			c0.2,0.2,0.5,0.3,0.9,0.3c0.4,0,0.7-0.1,0.9-0.3c0.2-0.2,0.3-0.4,0.3-0.7c0-0.2-0.1-0.5-0.2-0.6c-0.2-0.2-0.3-0.3-0.6-0.4
			c-0.2-0.1-0.5-0.2-0.9-0.3c-0.5-0.2-1-0.3-1.3-0.5c-0.3-0.2-0.6-0.4-0.9-0.7S35,25.8,35,25.2c0-0.5,0.1-0.9,0.4-1.3
			c0.2-0.4,0.6-0.6,1-0.8c0.4-0.2,1-0.3,1.5-0.3c0.9,0,1.6,0.2,2.1,0.6c0.5,0.4,0.8,1,0.9,1.8h-1.8c0-0.3-0.1-0.5-0.4-0.7
			c-0.2-0.2-0.5-0.3-0.9-0.3c-0.3,0-0.6,0.1-0.8,0.3s-0.3,0.4-0.3,0.7c0,0.2,0.1,0.4,0.2,0.6c0.1,0.1,0.3,0.3,0.6,0.4
			c0.2,0.1,0.5,0.2,0.9,0.3c0.5,0.2,1,0.3,1.3,0.5s0.6,0.4,0.9,0.7c0.2,0.3,0.4,0.7,0.4,1.3c0,0.4-0.1,0.9-0.3,1.2
			c-0.2,0.4-0.6,0.7-1,0.9s-1,0.3-1.6,0.3C37.5,31.4,37,31.3,36.5,31.1z"/>
		<path class="st2" d="M48.6,28.5h-4.9c0,0.5,0.2,0.9,0.5,1.1s0.7,0.4,1.1,0.4c0.6,0,1.1-0.3,1.3-0.8h1.8c-0.2,0.6-0.6,1.2-1.1,1.6
			s-1.2,0.6-2,0.6c-0.6,0-1.2-0.1-1.7-0.4c-0.5-0.3-0.9-0.7-1.2-1.2s-0.4-1.1-0.4-1.8c0-0.7,0.1-1.3,0.4-1.8
			c0.3-0.5,0.7-0.9,1.2-1.2c0.5-0.3,1.1-0.4,1.7-0.4c0.6,0,1.2,0.1,1.7,0.4c0.5,0.3,0.9,0.7,1.2,1.2c0.3,0.5,0.4,1.1,0.4,1.7
			C48.7,28.1,48.7,28.3,48.6,28.5z M46.9,27.4c0-0.4-0.2-0.8-0.5-1c-0.3-0.3-0.7-0.4-1.1-0.4c-0.4,0-0.8,0.1-1.1,0.4
			c-0.3,0.3-0.5,0.6-0.5,1H46.9z"/>
		<path class="st2" d="M52.4,24.9c0.3-0.2,0.7-0.3,1.2-0.3v1.8h-0.4c-0.5,0-0.9,0.1-1.2,0.4c-0.3,0.2-0.4,0.7-0.4,1.3v3.3h-1.7v-6.6
			h1.7v1C51.8,25.3,52.1,25.1,52.4,24.9z"/>
		<path class="st2" d="M57.5,29.8l1.7-5.1H61l-2.5,6.6h-2L54,24.7h1.8L57.5,29.8z"/>
		<path class="st2" d="M62,23.6c-0.2-0.2-0.3-0.4-0.3-0.7c0-0.3,0.1-0.5,0.3-0.7c0.2-0.2,0.4-0.3,0.7-0.3c0.3,0,0.5,0.1,0.7,0.3
			s0.3,0.4,0.3,0.7c0,0.3-0.1,0.5-0.3,0.7c-0.2,0.2-0.4,0.3-0.7,0.3C62.5,23.9,62.2,23.8,62,23.6z M63.6,24.7v6.6h-1.7v-6.6H63.6z"
			/>
		<path class="st2" d="M65.3,26.2c0.3-0.5,0.7-0.9,1.2-1.2c0.5-0.3,1.1-0.4,1.7-0.4c0.8,0,1.5,0.2,2,0.6c0.5,0.4,0.9,1,1.1,1.7h-1.8
			c-0.1-0.3-0.3-0.5-0.5-0.7c-0.2-0.2-0.5-0.2-0.8-0.2c-0.5,0-0.9,0.2-1.1,0.5c-0.3,0.3-0.4,0.8-0.4,1.5c0,0.6,0.1,1.1,0.4,1.5
			s0.7,0.5,1.1,0.5c0.7,0,1.1-0.3,1.3-0.9h1.8c-0.2,0.7-0.5,1.3-1.1,1.7c-0.5,0.4-1.2,0.6-2,0.6c-0.6,0-1.2-0.1-1.7-0.4
			c-0.5-0.3-0.9-0.7-1.2-1.2c-0.3-0.5-0.4-1.1-0.4-1.8C64.8,27.3,65,26.7,65.3,26.2z"/>
		<path class="st2" d="M78.6,28.5h-4.9c0,0.5,0.2,0.9,0.5,1.1s0.7,0.4,1.1,0.4c0.6,0,1.1-0.3,1.3-0.8h1.8c-0.2,0.6-0.6,1.2-1.1,1.6
			c-0.5,0.4-1.2,0.6-2,0.6c-0.6,0-1.2-0.1-1.7-0.4c-0.5-0.3-0.9-0.7-1.2-1.2c-0.3-0.5-0.4-1.1-0.4-1.8c0-0.7,0.1-1.3,0.4-1.8
			c0.3-0.5,0.7-0.9,1.2-1.2c0.5-0.3,1.1-0.4,1.7-0.4c0.6,0,1.2,0.1,1.7,0.4s0.9,0.7,1.2,1.2c0.3,0.5,0.4,1.1,0.4,1.7
			C78.7,28.1,78.7,28.3,78.6,28.5z M76.9,27.4c0-0.4-0.2-0.8-0.5-1c-0.3-0.3-0.7-0.4-1.1-0.4c-0.4,0-0.8,0.1-1,0.4s-0.5,0.6-0.5,1
			H76.9z"/>
		<path class="st2" d="M81,31.1c-0.4-0.2-0.8-0.5-1-0.8s-0.4-0.7-0.4-1.1h1.7c0,0.3,0.2,0.5,0.4,0.6s0.5,0.3,0.8,0.3
			c0.3,0,0.6-0.1,0.8-0.2c0.2-0.1,0.3-0.3,0.3-0.5c0-0.2-0.1-0.4-0.3-0.5c-0.2-0.1-0.6-0.2-1-0.4c-0.5-0.1-0.9-0.2-1.2-0.4
			c-0.3-0.1-0.6-0.3-0.8-0.6c-0.2-0.3-0.3-0.6-0.3-1.1c0-0.4,0.1-0.7,0.3-1c0.2-0.3,0.5-0.5,0.9-0.7c0.4-0.2,0.9-0.3,1.4-0.3
			c0.8,0,1.4,0.2,1.9,0.6c0.5,0.4,0.7,0.9,0.8,1.6h-1.6c0-0.3-0.1-0.5-0.3-0.6c-0.2-0.2-0.5-0.2-0.8-0.2c-0.3,0-0.5,0.1-0.7,0.2
			c-0.2,0.1-0.2,0.3-0.2,0.5c0,0.2,0.1,0.4,0.3,0.5c0.2,0.1,0.6,0.2,1,0.4c0.5,0.1,0.9,0.2,1.2,0.4c0.3,0.1,0.6,0.3,0.8,0.6
			c0.2,0.3,0.3,0.6,0.4,1.1c0,0.4-0.1,0.7-0.3,1c-0.2,0.3-0.5,0.5-0.9,0.7c-0.4,0.2-0.9,0.3-1.4,0.3C81.9,31.4,81.4,31.3,81,31.1z"
			/>
		<path class="st2" d="M89.4,24.9c0.4-0.7,0.9-1.2,1.5-1.5c0.6-0.4,1.4-0.5,2.2-0.5c0.9,0,1.8,0.2,2.5,0.7s1.2,1.1,1.5,2h-1.9
			c-0.2-0.4-0.5-0.7-0.8-0.9c-0.3-0.2-0.8-0.3-1.2-0.3c-0.5,0-0.9,0.1-1.3,0.3s-0.7,0.5-0.9,1s-0.3,0.9-0.3,1.5c0,0.6,0.1,1,0.3,1.5
			c0.2,0.4,0.5,0.7,0.9,1s0.8,0.3,1.3,0.3c0.5,0,0.9-0.1,1.2-0.3c0.3-0.2,0.6-0.5,0.8-0.9h1.9c-0.3,0.9-0.8,1.5-1.5,2
			c-0.7,0.5-1.5,0.7-2.5,0.7c-0.8,0-1.5-0.2-2.2-0.5c-0.6-0.4-1.2-0.9-1.5-1.5c-0.4-0.6-0.6-1.4-0.6-2.2
			C88.9,26.3,89.1,25.5,89.4,24.9z"/>
		<path class="st2" d="M99.7,31c-0.5-0.3-0.9-0.7-1.2-1.2s-0.4-1.1-0.4-1.8c0-0.7,0.1-1.3,0.5-1.8c0.3-0.5,0.7-0.9,1.2-1.2
			c0.5-0.3,1.1-0.4,1.7-0.4c0.6,0,1.2,0.1,1.7,0.4c0.5,0.3,0.9,0.7,1.2,1.2s0.5,1.1,0.5,1.8c0,0.7-0.2,1.3-0.5,1.8
			c-0.3,0.5-0.7,0.9-1.2,1.2c-0.5,0.3-1.1,0.4-1.8,0.4C100.8,31.4,100.2,31.3,99.7,31z M102.3,29.7c0.3-0.1,0.5-0.4,0.6-0.7
			c0.2-0.3,0.2-0.7,0.2-1.1c0-0.6-0.2-1.1-0.5-1.5c-0.3-0.3-0.7-0.5-1.2-0.5c-0.5,0-0.9,0.2-1.2,0.5c-0.3,0.3-0.5,0.8-0.5,1.5
			c0,0.6,0.2,1.1,0.5,1.5c0.3,0.3,0.7,0.5,1.2,0.5C101.8,29.9,102.1,29.9,102.3,29.7z"/>
		<path class="st2" d="M108.7,24.9c0.3-0.2,0.7-0.3,1.2-0.3v1.8h-0.4c-0.5,0-0.9,0.1-1.2,0.4c-0.3,0.2-0.4,0.7-0.4,1.3v3.3h-1.7
			v-6.6h1.7v1C108.1,25.3,108.3,25.1,108.7,24.9z"/>
		<path class="st2" d="M113.6,24.8c0.4-0.2,0.8-0.3,1.3-0.3c0.6,0,1.1,0.1,1.5,0.4c0.5,0.3,0.8,0.7,1.1,1.2s0.4,1.1,0.4,1.8
			c0,0.7-0.1,1.3-0.4,1.8s-0.6,0.9-1.1,1.2c-0.5,0.3-1,0.4-1.5,0.4c-0.5,0-0.9-0.1-1.3-0.3c-0.4-0.2-0.7-0.5-0.9-0.8v4.1H111v-9.8
			h1.7v1C112.9,25.3,113.2,25.1,113.6,24.8z M116,26.9c-0.2-0.3-0.4-0.5-0.6-0.7c-0.3-0.2-0.6-0.2-0.9-0.2c-0.3,0-0.6,0.1-0.9,0.2
			c-0.3,0.2-0.5,0.4-0.6,0.7c-0.2,0.3-0.2,0.6-0.2,1c0,0.4,0.1,0.7,0.2,1s0.4,0.5,0.6,0.7c0.3,0.2,0.6,0.2,0.9,0.2
			c0.3,0,0.6-0.1,0.9-0.2s0.5-0.4,0.6-0.7c0.2-0.3,0.2-0.6,0.2-1.1C116.2,27.6,116.1,27.2,116,26.9z"/>
		<path class="st2" d="M119.1,31.1c-0.2-0.2-0.3-0.4-0.3-0.7c0-0.3,0.1-0.5,0.3-0.7c0.2-0.2,0.4-0.3,0.8-0.3c0.3,0,0.5,0.1,0.7,0.3
			c0.2,0.2,0.3,0.4,0.3,0.7c0,0.3-0.1,0.5-0.3,0.7c-0.2,0.2-0.4,0.3-0.7,0.3C119.6,31.4,119.3,31.3,119.1,31.1z"/>
	</g>
</g>
<g class="st0">
	<path class="st3" d="M311.8-35c1.2,0.6,2.1,1.5,2.7,2.6c0.6,1.1,1,2.4,1,3.9c0,1.4-0.3,2.7-1,3.8s-1.5,2-2.7,2.6s-2.5,0.9-4.1,0.9
		h-5.5v-14.7h5.5C309.3-35.9,310.7-35.6,311.8-35z M310.7-25.4c0.8-0.7,1.1-1.8,1.1-3.1c0-1.4-0.4-2.4-1.1-3.2
		c-0.8-0.8-1.8-1.1-3.2-1.1h-1.7v8.6h1.7C308.9-24.3,310-24.6,310.7-25.4z"/>
	<path class="st3" d="M317.8-34.6c-0.4-0.4-0.6-0.8-0.6-1.4c0-0.6,0.2-1,0.6-1.4c0.4-0.4,0.9-0.6,1.5-0.6c0.6,0,1.1,0.2,1.5,0.6
		c0.4,0.4,0.6,0.8,0.6,1.4c0,0.5-0.2,1-0.6,1.4c-0.4,0.4-0.9,0.6-1.5,0.6C318.7-34.1,318.2-34.3,317.8-34.6z M321.1-32.9v11.7h-3.6
		v-11.7H321.1z"/>
	<path class="st3" d="M323.7-30.2c0.5-0.9,1.2-1.6,2.1-2.1c0.9-0.5,1.9-0.7,3.1-0.7c1.5,0,2.7,0.4,3.7,1.2c1,0.8,1.6,1.9,1.9,3.3
		h-3.8c-0.3-0.9-0.9-1.3-1.9-1.3c-0.7,0-1.2,0.3-1.6,0.8c-0.4,0.5-0.6,1.2-0.6,2.2s0.2,1.7,0.6,2.2c0.4,0.5,0.9,0.8,1.6,0.8
		c0.9,0,1.5-0.4,1.9-1.3h3.8c-0.3,1.4-1,2.5-2,3.2c-1,0.8-2.2,1.2-3.7,1.2c-1.1,0-2.2-0.2-3.1-0.7c-0.9-0.5-1.6-1.2-2.1-2.1
		c-0.5-0.9-0.7-2-0.7-3.2C323-28.2,323.2-29.3,323.7-30.2z"/>
	<path class="st3" d="M343.6-21.1l-3.6-4.9v4.9h-3.6v-15.5h3.6v8.6l3.5-4.8h4.4l-4.9,5.9l4.9,5.8H343.6z"/>
	<path class="st3" d="M349.7-34.6c-0.4-0.4-0.6-0.8-0.6-1.4c0-0.6,0.2-1,0.6-1.4c0.4-0.4,0.9-0.6,1.5-0.6c0.6,0,1.1,0.2,1.5,0.6
		c0.4,0.4,0.6,0.8,0.6,1.4c0,0.5-0.2,1-0.6,1.4c-0.4,0.4-0.9,0.6-1.5,0.6C350.6-34.1,350.1-34.3,349.7-34.6z M353-32.9v11.7h-3.6
		v-11.7H353z"/>
	<path class="st3" d="M366-31.7c0.8,0.9,1.2,2.1,1.2,3.7v6.8h-3.6v-6.4c0-0.8-0.2-1.4-0.6-1.8c-0.4-0.4-1-0.7-1.6-0.7
		c-0.7,0-1.2,0.2-1.6,0.7s-0.6,1-0.6,1.8v6.4h-3.6v-11.7h3.6v1.6c0.4-0.5,0.9-0.9,1.5-1.2c0.6-0.3,1.3-0.5,2.1-0.5
		C364.1-33,365.2-32.5,366-31.7z"/>
	<path class="st3" d="M371.8-21.5c-0.8-0.3-1.4-0.8-1.9-1.4s-0.7-1.3-0.8-2h3.5c0,0.4,0.2,0.7,0.6,1s0.7,0.4,1.2,0.4
		c0.4,0,0.8-0.1,1-0.3c0.2-0.2,0.4-0.4,0.4-0.7c0-0.3-0.2-0.6-0.5-0.7c-0.4-0.2-0.9-0.3-1.7-0.5c-0.8-0.2-1.5-0.4-2.1-0.6
		c-0.6-0.2-1-0.6-1.4-1c-0.4-0.5-0.6-1.1-0.6-1.9c0-0.7,0.2-1.3,0.6-1.8s0.9-1,1.6-1.3c0.7-0.3,1.6-0.5,2.6-0.5
		c1.5,0,2.6,0.4,3.5,1.1c0.8,0.7,1.3,1.7,1.5,2.9h-3.3c-0.1-0.4-0.2-0.7-0.5-1c-0.3-0.2-0.7-0.4-1.2-0.4c-0.4,0-0.7,0.1-1,0.2
		c-0.2,0.2-0.3,0.4-0.3,0.7c0,0.3,0.2,0.6,0.5,0.8c0.4,0.2,0.9,0.3,1.7,0.5c0.9,0.2,1.6,0.4,2.1,0.7c0.5,0.2,1,0.6,1.4,1
		c0.4,0.5,0.6,1.1,0.6,1.9c0,0.7-0.2,1.3-0.6,1.8s-0.9,1-1.7,1.3c-0.7,0.3-1.6,0.5-2.5,0.5C373.5-21,372.6-21.2,371.8-21.5z"/>
	<path class="st3" d="M383.7-21.7c-0.9-0.5-1.6-1.2-2.2-2.1c-0.5-0.9-0.8-2-0.8-3.2c0-1.2,0.3-2.3,0.8-3.2s1.3-1.6,2.2-2.1
		s2-0.7,3.1-0.7c1.1,0,2.2,0.2,3.1,0.7s1.7,1.2,2.2,2.1s0.8,2,0.8,3.2s-0.3,2.3-0.8,3.2c-0.5,0.9-1.3,1.6-2.2,2.1
		c-0.9,0.5-2,0.7-3.1,0.7C385.6-21,384.6-21.2,383.7-21.7z M388.5-24.8c0.5-0.5,0.7-1.2,0.7-2.2s-0.2-1.7-0.7-2.2s-1-0.8-1.7-0.8
		c-0.7,0-1.3,0.2-1.7,0.7c-0.5,0.5-0.7,1.2-0.7,2.2c0,0.9,0.2,1.7,0.7,2.2c0.5,0.5,1,0.8,1.7,0.8C387.5-24.1,388.1-24.3,388.5-24.8z
		"/>
	<path class="st3" d="M405.3-31.7c0.8,0.9,1.2,2.1,1.2,3.7v6.8h-3.6v-6.4c0-0.8-0.2-1.4-0.6-1.8c-0.4-0.4-1-0.7-1.6-0.7
		c-0.7,0-1.2,0.2-1.6,0.7s-0.6,1-0.6,1.8v6.4h-3.6v-11.7h3.6v1.6c0.4-0.5,0.9-0.9,1.5-1.2c0.6-0.3,1.3-0.5,2.1-0.5
		C403.3-33,404.4-32.5,405.3-31.7z"/>
	<path class="st3" d="M433.7-35.9l-3.8,14.7h-4.3l-2.4-9.7l-2.4,9.7h-4.3l-3.7-14.7h3.8l2.1,10.7l2.6-10.7h3.9l2.5,10.7l2.1-10.7
		H433.7z"/>
	<path class="st3" d="M440.7-32.4c0.6-0.4,1.3-0.6,2.1-0.6v3.8h-1c-0.9,0-1.6,0.2-2,0.6c-0.4,0.4-0.7,1.1-0.7,2v5.4h-3.6v-11.7h3.6
		v2C439.5-31.6,440.1-32.1,440.7-32.4z"/>
	<path class="st3" d="M444.8-34.6c-0.4-0.4-0.6-0.8-0.6-1.4c0-0.6,0.2-1,0.6-1.4c0.4-0.4,0.9-0.6,1.5-0.6c0.6,0,1.1,0.2,1.5,0.6
		c0.4,0.4,0.6,0.8,0.6,1.4c0,0.5-0.2,1-0.6,1.4c-0.4,0.4-0.9,0.6-1.5,0.6C445.7-34.1,445.2-34.3,444.8-34.6z M448.1-32.9v11.7h-3.6
		v-11.7H448.1z"/>
	<path class="st3" d="M457.3-32.5c0.6,0.3,1.1,0.8,1.4,1.3v-1.7h3.6v11.7c0,1.1-0.2,2.1-0.6,2.9c-0.4,0.9-1.1,1.6-2,2.1
		c-0.9,0.5-2,0.8-3.3,0.8c-1.7,0-3.1-0.4-4.2-1.2c-1.1-0.8-1.7-1.9-1.8-3.3h3.5c0.1,0.4,0.4,0.8,0.8,1.1s0.9,0.4,1.6,0.4
		c0.7,0,1.3-0.2,1.8-0.6c0.4-0.4,0.7-1.1,0.7-2v-1.7c-0.4,0.5-0.8,1-1.4,1.3c-0.6,0.3-1.3,0.5-2.2,0.5c-1,0-1.8-0.2-2.6-0.7
		c-0.8-0.5-1.4-1.2-1.9-2.1c-0.5-0.9-0.7-2-0.7-3.2s0.2-2.3,0.7-3.2s1.1-1.6,1.9-2.1s1.7-0.7,2.6-0.7C456-33,456.7-32.9,457.3-32.5z
		 M458-29.1c-0.5-0.5-1.1-0.8-1.8-0.8s-1.3,0.3-1.8,0.8c-0.5,0.5-0.7,1.2-0.7,2.1s0.2,1.6,0.7,2.1s1.1,0.8,1.8,0.8s1.3-0.3,1.8-0.8
		s0.7-1.2,0.7-2.1S458.5-28.6,458-29.1z"/>
	<path class="st3" d="M475.4-31.7c0.8,0.9,1.2,2.1,1.2,3.7v6.8h-3.6v-6.4c0-0.8-0.2-1.4-0.6-1.8c-0.4-0.4-1-0.7-1.6-0.7
		c-0.7,0-1.2,0.2-1.6,0.7s-0.6,1-0.6,1.8v6.4H465v-15.5h3.6v5.4c0.4-0.5,0.9-0.9,1.5-1.2s1.3-0.5,2.1-0.5
		C473.5-33,474.6-32.5,475.4-31.7z"/>
	<path class="st3" d="M485.7-24.2v3h-1.8c-1.3,0-2.3-0.3-3-1c-0.7-0.6-1.1-1.7-1.1-3.1v-4.7h-1.4v-3h1.4v-2.9h3.6v2.9h2.4v3h-2.4
		v4.7c0,0.4,0.1,0.6,0.3,0.8c0.2,0.2,0.4,0.2,0.8,0.2H485.7z"/>
</g>
<g class="st0">
	<g class="st1">
		<path class="st2" d="M235.6,37v8.4h-1.7v-5.4l-2.2,5.4h-1.3l-2.3-5.4v5.4h-1.7V37h1.9l2.7,6.2l2.7-6.2H235.6z"/>
		<path class="st2" d="M242.3,43.8H239l-0.6,1.6h-1.8l3-8.4h2l3,8.4h-1.8L242.3,43.8z M241.9,42.4l-1.2-3.5l-1.2,3.5H241.9z"/>
		<path class="st2" d="M250.1,45.4l-1.8-3.3h-0.8v3.3h-1.7V37h3.1c0.6,0,1.2,0.1,1.7,0.3c0.5,0.2,0.8,0.5,1,0.9
			c0.2,0.4,0.3,0.8,0.3,1.3c0,0.6-0.2,1.1-0.5,1.5c-0.3,0.4-0.8,0.8-1.4,0.9l2,3.4H250.1z M247.5,40.8h1.4c0.5,0,0.8-0.1,1-0.3
			c0.2-0.2,0.3-0.5,0.3-0.9c0-0.4-0.1-0.7-0.3-0.9c-0.2-0.2-0.6-0.3-1-0.3h-1.4V40.8z"/>
		<path class="st2" d="M258.2,45.4l-3-3.7v3.7h-1.7V37h1.7v3.8l3-3.8h2l-3.5,4.2l3.6,4.2H258.2z"/>
		<path class="st2" d="M263.1,38.3v2.1h2.8v1.3h-2.8V44h3.2v1.4h-4.9V37h4.9v1.4H263.1z"/>
		<path class="st2" d="M273.5,37v1.4h-2.2v7h-1.7v-7h-2.2V37H273.5z"/>
		<path class="st2" d="M276.4,37v8.4h-1.7V37H276.4z"/>
		<path class="st2" d="M285.3,45.4h-1.7l-3.8-5.7v5.7h-1.7V37h1.7l3.8,5.8V37h1.7V45.4z"/>
		<path class="st2" d="M292.8,39.5c-0.2-0.4-0.5-0.6-0.8-0.8s-0.7-0.3-1.2-0.3c-0.5,0-0.9,0.1-1.3,0.3c-0.4,0.2-0.7,0.5-0.9,1
			c-0.2,0.4-0.3,0.9-0.3,1.4c0,0.6,0.1,1,0.3,1.5c0.2,0.4,0.5,0.7,0.9,1c0.4,0.2,0.8,0.3,1.4,0.3c0.6,0,1.2-0.2,1.6-0.5
			s0.7-0.8,0.8-1.4h-2.9v-1.3h4.5v1.5c-0.1,0.6-0.4,1.1-0.7,1.6s-0.8,0.9-1.4,1.2c-0.6,0.3-1.2,0.4-2,0.4c-0.8,0-1.5-0.2-2.2-0.5
			c-0.7-0.4-1.2-0.9-1.5-1.5c-0.4-0.6-0.6-1.4-0.6-2.2s0.2-1.6,0.6-2.2c0.4-0.7,0.9-1.2,1.5-1.5c0.7-0.4,1.4-0.5,2.2-0.5
			c0.9,0,1.8,0.2,2.5,0.7c0.7,0.5,1.2,1.1,1.4,1.9H292.8z"/>
	</g>
	<g class="st1">
		<path class="st2" d="M233.1,31.5l-3.1-5.6h-0.9v5.6h-3.6V16.7h6c1.2,0,2.2,0.2,3,0.6s1.4,1,1.8,1.7c0.4,0.7,0.6,1.5,0.6,2.4
			c0,1-0.3,1.9-0.8,2.6c-0.6,0.8-1.4,1.3-2.4,1.6l3.4,5.8H233.1z M229.2,23.4h2.2c0.7,0,1.2-0.2,1.5-0.5s0.5-0.8,0.5-1.4
			c0-0.6-0.2-1-0.5-1.3s-0.8-0.5-1.5-0.5h-2.2V23.4z"/>
		<path class="st2" d="M250.9,19.7v11.7h-3.6v-1.6c-0.4,0.5-0.9,0.9-1.5,1.2c-0.6,0.3-1.3,0.5-2.1,0.5c-0.9,0-1.7-0.2-2.4-0.6
			c-0.7-0.4-1.2-1-1.6-1.7s-0.6-1.6-0.6-2.7v-6.8h3.6v6.4c0,0.8,0.2,1.4,0.6,1.8c0.4,0.4,1,0.7,1.6,0.7c0.7,0,1.3-0.2,1.7-0.7
			c0.4-0.4,0.6-1,0.6-1.8v-6.4H250.9z"/>
		<path class="st2" d="M255.5,31.1c-0.8-0.3-1.4-0.8-1.9-1.4c-0.5-0.6-0.7-1.3-0.8-2h3.5c0,0.4,0.2,0.7,0.6,1s0.7,0.4,1.2,0.4
			c0.4,0,0.8-0.1,1-0.3s0.4-0.4,0.4-0.7c0-0.3-0.2-0.6-0.5-0.7s-0.9-0.3-1.7-0.5c-0.8-0.2-1.5-0.4-2.1-0.6c-0.6-0.2-1-0.6-1.4-1
			c-0.4-0.5-0.6-1.1-0.6-1.9c0-0.7,0.2-1.3,0.6-1.8c0.4-0.6,0.9-1,1.6-1.3c0.7-0.3,1.6-0.5,2.6-0.5c1.5,0,2.6,0.4,3.5,1.1
			c0.8,0.7,1.3,1.7,1.5,2.9h-3.3c-0.1-0.4-0.2-0.7-0.5-1c-0.3-0.2-0.7-0.4-1.2-0.4c-0.4,0-0.7,0.1-1,0.2c-0.2,0.2-0.3,0.4-0.3,0.7
			c0,0.3,0.2,0.6,0.5,0.8c0.4,0.2,0.9,0.3,1.7,0.5c0.9,0.2,1.6,0.4,2.1,0.7c0.5,0.2,1,0.6,1.4,1c0.4,0.5,0.6,1.1,0.6,1.9
			c0,0.7-0.2,1.3-0.6,1.8c-0.4,0.5-0.9,1-1.7,1.3c-0.7,0.3-1.6,0.5-2.5,0.5C257.2,31.6,256.3,31.4,255.5,31.1z"/>
		<path class="st2" d="M267.2,31.1c-0.8-0.3-1.4-0.8-1.9-1.4c-0.5-0.6-0.7-1.3-0.8-2h3.5c0,0.4,0.2,0.7,0.6,1s0.7,0.4,1.2,0.4
			c0.4,0,0.8-0.1,1-0.3s0.4-0.4,0.4-0.7c0-0.3-0.2-0.6-0.5-0.7c-0.4-0.2-0.9-0.3-1.7-0.5c-0.8-0.2-1.5-0.4-2.1-0.6
			c-0.6-0.2-1-0.6-1.4-1c-0.4-0.5-0.6-1.1-0.6-1.9c0-0.7,0.2-1.3,0.6-1.8c0.4-0.6,0.9-1,1.6-1.3c0.7-0.3,1.6-0.5,2.6-0.5
			c1.5,0,2.6,0.4,3.5,1.1c0.8,0.7,1.3,1.7,1.5,2.9h-3.3c-0.1-0.4-0.2-0.7-0.5-1c-0.3-0.2-0.7-0.4-1.2-0.4c-0.4,0-0.7,0.1-1,0.2
			c-0.2,0.2-0.3,0.4-0.3,0.7c0,0.3,0.2,0.6,0.5,0.8c0.4,0.2,0.9,0.3,1.7,0.5c0.9,0.2,1.6,0.4,2.1,0.7c0.5,0.2,1,0.6,1.4,1
			c0.4,0.5,0.6,1.1,0.6,1.9c0,0.7-0.2,1.3-0.6,1.8s-0.9,1-1.7,1.3c-0.7,0.3-1.6,0.5-2.5,0.5C268.9,31.6,268,31.4,267.2,31.1z"/>
		<path class="st2" d="M287.9,26.5h-8.1c0.1,0.7,0.3,1.3,0.7,1.7s0.9,0.6,1.5,0.6c0.9,0,1.5-0.4,1.9-1.1h3.8
			c-0.2,0.8-0.5,1.5-1.1,2.1c-0.5,0.6-1.2,1.1-1.9,1.4s-1.6,0.5-2.6,0.5c-1.1,0-2.2-0.2-3.1-0.7c-0.9-0.5-1.6-1.2-2.1-2.1
			c-0.5-0.9-0.8-2-0.8-3.2c0-1.2,0.2-2.3,0.7-3.2c0.5-0.9,1.2-1.6,2.1-2.1s1.9-0.7,3.1-0.7c1.1,0,2.1,0.2,3,0.7
			c0.9,0.5,1.6,1.2,2.1,2s0.7,1.9,0.7,3.1C287.9,25.7,287.9,26.1,287.9,26.5z M284.3,24.5c0-0.6-0.2-1.1-0.6-1.5
			c-0.4-0.4-0.9-0.5-1.6-0.5c-0.6,0-1.1,0.2-1.5,0.5c-0.4,0.3-0.7,0.8-0.8,1.5H284.3z"/>
		<path class="st2" d="M293.4,15.9v15.5h-3.6V15.9H293.4z"/>
		<path class="st2" d="M299.6,15.9v15.5H296V15.9H299.6z"/>
	</g>
</g>
<g class="st0">
	<path class="st3" d="M87.2-85.1c-0.3-0.5-0.6-0.9-1.1-1.1c-0.5-0.3-1.1-0.4-1.8-0.4c-1.2,0-2.1,0.4-2.8,1.1c-0.7,0.8-1,1.8-1,3.1
		c0,1.4,0.4,2.4,1.1,3.2c0.7,0.8,1.7,1.1,3,1.1c0.9,0,1.6-0.2,2.2-0.7s1.1-1.1,1.3-1.9h-4.6v-2.6h7.8v3.3c-0.3,0.9-0.7,1.7-1.4,2.5
		c-0.6,0.8-1.4,1.4-2.4,1.9c-1,0.5-2.1,0.7-3.3,0.7c-1.5,0-2.8-0.3-3.9-1c-1.1-0.6-2-1.5-2.7-2.7c-0.6-1.1-1-2.4-1-3.9
		c0-1.5,0.3-2.8,1-3.9c0.6-1.1,1.5-2,2.7-2.7c1.1-0.6,2.4-1,3.9-1c1.8,0,3.3,0.4,4.5,1.3s2,2,2.4,3.5H87.2z"/>
	<path class="st3" d="M97-86.9v3h4.8v2.8H97v3.2h5.4v2.9h-9v-14.7h9v2.9H97z"/>
	<path class="st3" d="M121.4-89.8V-75h-3.6v-8.8l-3.3,8.8h-2.9l-3.3-8.9v8.9h-3.6v-14.7h4.2l4.1,10.2l4.1-10.2H121.4z"/>
	<path class="st3" d="M135-81.3c0.5,0.7,0.8,1.4,0.8,2.3c0,1.2-0.4,2.2-1.3,2.9c-0.9,0.7-2.1,1.1-3.6,1.1H124v-14.7h6.6
		c1.5,0,2.7,0.3,3.5,1c0.8,0.7,1.3,1.6,1.3,2.8c0,0.9-0.2,1.6-0.7,2.2c-0.5,0.6-1.1,1-1.8,1.2C133.8-82.4,134.5-82,135-81.3z
		 M127.6-83.8h2.4c0.6,0,1-0.1,1.4-0.4c0.3-0.3,0.5-0.6,0.5-1.1s-0.2-0.9-0.5-1.2c-0.3-0.3-0.8-0.4-1.4-0.4h-2.4V-83.8z M131.6-78.3
		c0.3-0.3,0.5-0.7,0.5-1.2c0-0.5-0.2-0.9-0.5-1.2c-0.3-0.3-0.8-0.4-1.4-0.4h-2.6v3.3h2.6C130.8-77.9,131.3-78.1,131.6-78.3z"/>
	<path class="st3" d="M147-77.6h-5.5l-0.9,2.6h-3.8l5.3-14.7h4.2l5.3,14.7h-3.8L147-77.6z M146.1-80.4l-1.8-5.4l-1.8,5.4H146.1z"/>
	<path class="st3" d="M166.1-89.8V-75h-3.6v-6.1h-5.6v6.1h-3.6v-14.7h3.6v5.8h5.6v-5.8H166.1z"/>
</g>
</svg>
