<?xml version="1.0" encoding="utf-8"?>
<!-- Generator: Adobe Illustrator 26.4.1, SVG Export Plug-In . SVG Version: 6.00 Build 0)  -->
<svg version="1.1" id="Layer_1" xmlns="http://www.w3.org/2000/svg" xmlns:xlink="http://www.w3.org/1999/xlink" x="0px" y="0px"
	 viewBox="0 0 1920 1080" style="enable-background:new 0 0 1920 1080;" xml:space="preserve">
<style type="text/css">
	.st0{clip-path:url(#SVGID_00000125586078349286112380000004624740209247969707_);}
	.st1{opacity:6.000000e-02;fill:#2078BB;}
	.st2{opacity:0.13;}
	.st3{fill:#2078BB;}
	.st4{opacity:0.15;}
	.st5{fill:#FFFFFF;}
	.st6{opacity:0.24;fill-rule:evenodd;clip-rule:evenodd;fill:#2078BB;}
	.st7{clip-path:url(#SVGID_00000085247550978880400470000000725293327011800241_);}
	.st8{fill:url(#SVGID_00000079446705424241205870000001592633377922710928_);}
</style>
<g>
	<defs>
		<rect id="SVGID_1_" width="1920" height="1080"/>
	</defs>
	<clipPath id="SVGID_00000093162284705652739050000002042074981105500559_">
		<use xlink:href="#SVGID_1_"  style="overflow:visible;"/>
	</clipPath>
	<g style="clip-path:url(#SVGID_00000093162284705652739050000002042074981105500559_);">
		<rect class="st1" width="1920" height="1080"/>
		<g class="st2">
			<g>
				
					<ellipse transform="matrix(8.704745e-02 -0.9962 0.9962 8.704745e-02 584.3578 1886.7871)" class="st3" cx="1321.6" cy="624.6" rx="138.4" ry="346.1"/>
			</g>
		</g>
		<g class="st4">
			
				<ellipse transform="matrix(4.682545e-02 -0.9989 0.9989 4.682545e-02 1062.4189 1814.1665)" class="st5" cx="1481.8" cy="350.4" rx="242.4" ry="421"/>
		</g>
		<path class="st6" d="M2537,592.5c0-0.3-0.2-0.5-0.5-0.5h-904c-40,0-72.5,32.5-72.5,72.5v540c0,0.3,0.2,0.5,0.5,0.5
			s0.5-0.2,0.5-0.5v-540c0-39.5,32-71.5,71.5-71.5h904C2536.8,593,2537,592.8,2537,592.5z"/>
		<path class="st6" d="M2540,534.5c0-0.3-0.2-0.5-0.5-0.5h-946c-52.2,0-94.5,42.3-94.5,94.5v565c0,0.3,0.2,0.5,0.5,0.5
			s0.5-0.2,0.5-0.5v-565c0-51.6,41.9-93.5,93.5-93.5h946C2539.8,535,2540,534.8,2540,534.5z"/>
		<path class="st6" d="M2553,467.5c0-0.3-0.2-0.5-0.5-0.5h-1008c-62.1,0-112.5,50.4-112.5,112.5v604c0,0.3,0.2,0.5,0.5,0.5
			s0.5-0.2,0.5-0.5v-604c0-61.6,49.9-111.5,111.5-111.5h1008C2552.8,468,2553,467.8,2553,467.5z"/>
		<path class="st6" d="M2557,393.5c0-0.3-0.2-0.5-0.5-0.5h-1072c-71,0-128.5,57.5-128.5,128.5v652c0,0.3,0.2,0.5,0.5,0.5
			s0.5-0.2,0.5-0.5v-652c0-70.4,57.1-127.5,127.5-127.5h1072C2556.8,394,2557,393.8,2557,393.5z"/>
		<path class="st6" d="M2557,303.5c0-0.3-0.2-0.5-0.5-0.5h-1164c-73.2,0-132.5,59.3-132.5,132.5v728c0,0.3,0.2,0.5,0.5,0.5
			s0.5-0.2,0.5-0.5v-728c0-72.6,58.9-131.5,131.5-131.5h1164C2556.8,304,2557,303.8,2557,303.5z"/>
		<g>
			<defs>
				<rect id="SVGID_00000065048466511354166000000001259717415309541000_" y="90" width="992" height="990"/>
			</defs>
			<clipPath id="SVGID_00000065056678466476722960000010361531830161345976_">
				<use xlink:href="#SVGID_00000065048466511354166000000001259717415309541000_"  style="overflow:visible;"/>
			</clipPath>
			<g style="clip-path:url(#SVGID_00000065056678466476722960000010361531830161345976_);">
				
					<radialGradient id="SVGID_00000047740646166349957990000004725882239956724633_" cx="661.6465" cy="960.4163" r="1" gradientTransform="matrix(734.6859 -762.5933 -764.1056 -736.1428 247722.3594 1212709.5)" gradientUnits="userSpaceOnUse">
					<stop  offset="0" style="stop-color:#6366F1;stop-opacity:5.000000e-02"/>
					<stop  offset="1" style="stop-color:#FFFFFF;stop-opacity:0"/>
				</radialGradient>
				<path style="fill:url(#SVGID_00000047740646166349957990000004725882239956724633_);" d="M-1,1080h-0.6H-1z M0.2,1080
					l524.6-13.5c0.2,4.5,0.2,9,0.2,13.5H0H0.2z M-0.8,1080H-1h-0.6H-0.8z M-0.2,1080H0h0.2h0.2h0.2l519.9-67.7
					c1.1,9,2.1,18.1,2.9,27.3L0.3,1080H0.2H-0.2h-0.5H-0.2z M510.4,957.9c2.1,9,4,18,5.8,27l-515.7,95L510.4,957.9z M-0.2,1080h0.3
					h0.2H-0.2z M494.7,904.8c3,8.7,5.9,17.5,8.5,26.3L0.3,1079.8L494.7,904.8z M473.7,853.8c4,8.3,7.7,16.7,11.2,25.2L0.5,1079.7
					L473.7,853.8z M0,1080h0.2H0z M447.4,805.5c4.8,7.9,9.3,15.7,13.8,23.7L0.6,1079.8L447.4,805.5z M0,1080l0.2-0.2L0,1080z
					 M0.2,1080l416.1-319.6c5.6,7.2,10.9,14.6,16.1,22.1l-432,297.3L0.2,1080z M0,1080l380.7-361.2c6.3,6.6,12.4,13.3,18.3,20.4
					L0,1080z M0,1079.8l341.1-398.7c6.9,5.9,13.6,12,20.4,18.3L0,1079.8z M0,1079.8v-0.2l297.6-431.8c7.5,5.1,14.9,10.6,22.2,16
					L0,1079.8z M0.2,1079.5L250.9,619c8,4.3,16.1,9,23.8,13.8L0.2,1079.5z M201,595.3c8.5,3.5,16.9,7.2,25.2,11.2L0,1079.5
					L201,595.3z M149,576.8c8.8,2.6,17.7,5.5,26.3,8.5l-175.1,494L149,576.8z M0,1080v-0.2V1080z M95.2,564c9.1,1.6,18.1,3.5,27,5.8
					l-122,509.8L95.2,564z M0,1080v-0.2V1080z M0,1080v-0.2v-0.2l40.8-522.8c9.1,0.6,18.1,1.6,27.3,2.9L0.3,1079.5v0.2v0.2L0,1080z
					 M0,1080V555.3c4.5,0,9,0,13.5,0.2L0,1079.8V1080z M0,555.3V1080h-0.2h-0.5h-0.2H-1h-0.6V555.3H0z M0.2,1080l524.6-13.5
					l465.3-12c0.2,8.5,0.3,17,0.3,25.5H0H0.2z M-0.8,1080H-1h-0.6H-0.8z M-0.2,1080H0h0.2h0.2h0.2l520.1-67.9L982,952
					c2.2,17,4,34.2,5.3,51.3l-464.1,35.9L0.3,1080H0.2H-0.2h-0.5H-0.2z M0.5,1079.8l510-121.9l452.7-108.3c4,16.8,7.7,33.9,10.8,51
					l-457.8,84.2L0.5,1079.8z M-0.2,1080H0H-0.2z M494.7,904.8l438.9-155.3c5.8,16.4,11.2,32.9,16.1,49.6L503.2,931.1L0.3,1079.8
					L494.7,904.8z M0,1080h0.2H0z M473.7,853.8l419.9-200.6c7.5,15.6,14.6,31.4,21.2,47.7l-430,178.3L0.3,1079.8L473.7,853.8z
					 M447.4,805.5L844,562.1c9,14.8,17.7,29.7,26,44.9L0.5,1079.8L447.4,805.5z M0,1080l0.2-0.2L0,1080z M0.2,1080l416.1-319.6
					l369.2-283.5c10.4,13.6,20.5,27.6,30.5,41.7L432.4,782.5l-432,297.3L0.2,1080z M0.2,1080l380.6-361.2l337.6-320.4
					c11.9,12.5,23.3,25.2,34.5,38.3L399,739L0.2,1080z M0,1079.8l341.1-398.7l302.4-353.6c13.2,11.2,25.8,22.6,38.4,34.5
					L361.3,699.4L0,1079.8z M0,1079.8v-0.2l297.6-431.8l264.1-383.3c14.3,9.8,28.1,19.9,41.7,30.5l-283.6,369L0,1079.8z M0.2,1079.5
					l473-869.2c15.2,8.3,30.2,17,44.9,26L274.5,632.8L0.2,1079.5z M201,595.3l178.3-429.9c16.1,6.7,31.9,13.8,47.7,21.2L226.3,606.5
					l-226.2,473L201,595.3z M149,576.8l131.9-446.2c16.7,5,33.4,10.3,49.6,16L175.1,585.3L0,1079.4L149,576.8z M0,1080v-0.2V1080z
					 M0.2,1079.5l95-515.5l84.3-457.6c17.2,3.2,34.2,6.7,51,10.8L122.2,569.6L0.2,1079.5z M0,1080v-0.2V1080z M0,1080v-0.2v-0.2
					l40.8-522.8l36-464c17.2,1.3,34.4,3.2,51.4,5.3L67.9,559.6L0,1079.5v0.2v0.2V1080z M0,1080V90c8.5,0,17,0.2,25.5,0.3l-12,465.2
					L0,1079.8V1080z M0,90v990h-0.2h-0.5h-0.2H-1h-0.6V90H0z"/>
			</g>
		</g>
	</g>
</g>
</svg>
