<?xml version="1.0" encoding="utf-8"?>
<!-- Generator: Adobe Illustrator 26.4.1, SVG Export Plug-In . SVG Version: 6.00 Build 0)  -->
<svg version="1.1" id="Layer_1" xmlns:v="https://vecta.io/nano"
	 xmlns="http://www.w3.org/2000/svg" xmlns:xlink="http://www.w3.org/1999/xlink" x="0px" y="0px" viewBox="0 0 56 56"
	 style="enable-background:new 0 0 56 56;" xml:space="preserve">
<style type="text/css">
	.st0{fill:#FFB655;}
	.st1{fill:#FF9811;}
	.st2{fill:#1E81CE;}
	.st3{fill:#FFA733;}
	.st4{fill:#3D9AE2;}
	.st5{fill:#57565C;}
	.st6{fill:#FFC477;}
	.st7{fill:#ED1C24;}
	.st8{fill:#EE8700;}
</style>
<g>
	<path class="st0" d="M48.9,27.8l1.3-7.2c0.1-0.8,0.6-1.4,1.2-1.8c0.6-0.4,1.4-0.6,2.1-0.5c1.6,0.3,2.6,1.8,2.3,3.3l-3.6,20.6
		l-4.6,4l-0.3,1.9l-11.3-2l1.3-7.5l1.4-1.7l7-8.3c0.7-0.8,1.7-1.2,2.7-1C48.6,27.7,48.7,27.7,48.9,27.8z"/>
	<path class="st1" d="M49,9.5c0.9,0,1.3,1.2,0.6,1.7l-1.3,0.9l0.5,1.5c0.3,0.9-0.7,1.6-1.5,1.1l-1.2-0.9l-1.2,0.9
		c-0.8,0.5-1.8-0.2-1.5-1.1l0.5-1.5l-1.3-0.9c-0.7-0.5-0.4-1.7,0.6-1.7h1.6l0.5-1.5c0.3-0.9,1.5-0.9,1.8,0l0.5,1.5H49z"/>
	<polygon class="st2" points="49.1,48.5 47.8,56 32.8,53.4 34.1,45.8 36,46.2 47.2,48.2 	"/>
	<polygon class="st2" points="21.9,45.8 23.2,53.4 8.2,56 6.9,48.5 8.8,48.2 20,46.2 	"/>
	<path class="st0" d="M7.1,27.8c0.1-0.1,0.3-0.1,0.5-0.1c1-0.2,2,0.2,2.7,1l7,8.3l1.4,1.7l1.3,7.5l-11.3,2l-0.3-1.9l-4.6-4L0.2,21.6
		c-0.3-1.6,0.8-3,2.3-3.3c0.8-0.1,1.5,0.1,2.1,0.5c0.6,0.4,1,1.1,1.2,1.8L7.1,27.8z"/>
	<g>
		<path class="st3" d="M19.1,46.3l-1.3-7.2l-8.3-9.9c-0.4-0.5-1.1-0.8-1.8-0.7c-0.1,0-0.3,0.1-0.3,0.1C7.2,28.8,7,28.9,6.8,29
			c-0.8,0.7-0.9,1.9-0.2,2.7l7,8.3l-1.5,1.2l-7-8.3c-1.3-1.6-1.1-4,0.5-5.4C6,27.3,6.4,27,6.8,26.9c0.2-0.1,0.5-0.1,0.6-0.2
			C8.8,26.5,10.1,27,11,28l8.5,10.1c0.1,0.1,0.2,0.3,0.2,0.4L21,46L19.1,46.3z"/>
	</g>
	<g>
		<path class="st3" d="M36.9,46.3L35,46l1.3-7.5c0-0.2,0.1-0.3,0.2-0.4L45,28c0.9-1,2.2-1.5,3.6-1.3c0.2,0,0.4,0.1,0.6,0.2
			c0.4,0.1,0.8,0.4,1.1,0.6c1.6,1.4,1.8,3.8,0.5,5.4l-7,8.3l-1.5-1.2l7-8.3c0.7-0.8,0.6-2-0.2-2.7c-0.2-0.1-0.4-0.3-0.6-0.3
			c0,0-0.2-0.1-0.3-0.1c-0.7-0.1-1.4,0.1-1.8,0.7l-8.3,9.9L36.9,46.3z"/>
	</g>
	<path class="st1" d="M12.8,9.5c0.9,0,1.3,1.2,0.6,1.7l-1.3,0.9l0.5,1.5c0.3,0.9-0.7,1.6-1.5,1.1l-1.2-0.9l-1.2,0.9
		c-0.8,0.5-1.8-0.2-1.5-1.1l0.5-1.5l-1.3-0.9C5.7,10.7,6,9.5,7,9.5h1.6L9,8.1c0.3-0.9,1.5-0.9,1.8,0l0.5,1.5H12.8z"/>
	<path class="st4" d="M39.4,28.5v3.9h-8.6l-1.7-7.8l0.8-0.8l2.9,1l0.7-2.7l2.6,1.2C38.1,24.2,39.4,26.2,39.4,28.5z"/>
	<path class="st0" d="M35.6,9.5c1,0,1.9,0.9,1.9,1.9s-0.9,1.9-1.9,1.9c-0.4,0-0.7-0.1-1-0.3c0-0.2,0-0.4,0-0.7V9.8
		C34.9,9.6,35.3,9.5,35.6,9.5z"/>
	<path class="st5" d="M36.6,3.8v2.9l-1.9,1.9h-0.5c-0.8,0-1.5-0.5-1.8-1.3l-0.5-1.6L30,7.1c-1.3,1-2.9,1.5-4.6,1.5h-4.1l-2.9-2.9
		l1-1.9L17.5,0h15.2C34.9,0,36.6,1.7,36.6,3.8z"/>
	<path class="st6" d="M34.7,9.8v2.6c0,0.2,0,0.5,0,0.7c-0.2,2.4-1.7,4.4-3.8,5.3C30,18.8,29,19.1,28,19.1s-2-0.2-2.9-0.6
		c-0.7-0.3-1.3-0.8-1.9-1.3c-1.1-1.1-1.8-2.5-1.9-4c0-0.2,0-0.4,0-0.7V9.8V8.6h4.1c1.6,0,3.3-0.5,4.6-1.5l1.8-1.3l0.5,1.6
		c0.3,0.8,1,1.3,1.8,1.3h0.5V9.8z"/>
	<polygon class="st2" points="33.4,22.1 32.8,24.8 29.9,23.8 29,21.9 30.9,21 	"/>
	<path class="st6" d="M30.9,18.1V21l-1.9,1H27l-1.9-1v-2.9C26.1,18.1,29.9,18.1,30.9,18.1z"/>
	<polygon class="st7" points="29.1,24.6 30.9,32.4 25.1,32.4 26.9,24.6 28,25.7 	"/>
	<polygon class="st7" points="29,21.9 29.9,23.8 29.1,24.6 28,25.7 26.9,24.6 26.1,23.8 27,21.9 	"/>
	<polygon class="st2" points="27,21.9 26.1,23.8 23.2,24.8 22.6,22.1 25.1,21 	"/>
	<path class="st4" d="M26.9,24.6l-1.7,7.8h-8.6v-3.9c0-2.3,1.3-4.3,3.4-5.2l2.6-1.2l0.7,2.7l2.9-1L26.9,24.6z"/>
	<path class="st0" d="M21.3,12.4c0,0.2,0,0.5,0,0.7c-0.3,0.2-0.6,0.3-1,0.3c-1,0-1.9-0.9-1.9-1.9s0.9-1.9,1.9-1.9
		c0.3,0,0.7,0.1,1,0.3V12.4z"/>
	<path class="st0" d="M30.9,18.4v1C30,19.8,29,20,28,20s-2-0.2-2.9-0.6v-1c0.9,0.4,1.8,0.6,2.9,0.6S30,18.8,30.9,18.4z"/>
	<path class="st8" d="M25.1,12.4L25.1,12.4c-0.5,0-1-0.4-1-1v0c0-0.5,0.4-1,1-1h0c0.5,0,1,0.4,1,1v0C26.1,12,25.7,12.4,25.1,12.4z"
		/>
	<path class="st8" d="M30.9,12.4L30.9,12.4c-0.5,0-1-0.4-1-1v0c0-0.5,0.4-1,1-1h0c0.5,0,1,0.4,1,1v0C31.8,12,31.4,12.4,30.9,12.4z"
		/>
</g>
</svg>
