<?xml version="1.0" encoding="utf-8"?>
<!-- Generator: Adobe Illustrator 26.4.1, SVG Export Plug-In . SVG Version: 6.00 Build 0)  -->
<svg version="1.1" id="Layer_1" xmlns:v="https://vecta.io/nano"
	 xmlns="http://www.w3.org/2000/svg" xmlns:xlink="http://www.w3.org/1999/xlink" x="0px" y="0px" viewBox="0 0 56 56"
	 style="enable-background:new 0 0 56 56;" xml:space="preserve">
<style type="text/css">
	.st0{fill:#3E3D42;}
	.st1{fill:#FFC477;}
	.st2{fill:#3D9AE2;}
	.st3{fill:#787680;}
	.st4{fill:#57565C;}
	.st5{fill:#FFD422;}
	.st6{fill:#EE8700;}
	.st7{fill:#FFB655;}
	.st8{fill:#1E81CE;}
	.st9{fill:#FF9811;}
</style>
<g>
	<path class="st0" d="M55.2,53.3v1.9h-5.6l-1.9-0.9v-2.8h4.7h0.9C54.4,51.4,55.2,52.2,55.2,53.3z"/>
	<path class="st1" d="M55.2,30.7v2.3c0,0.8-0.6,1.4-1.4,1.4s-1.4-0.6-1.4-1.4v-2.3H55.2z"/>
	<path class="st2" d="M43,30.7h-2.8v-4.7c0-3.1,2.5-5.6,5.6-5.6l1.9,1.9l1.9-1.9c3.1,0,5.6,2.5,5.6,5.6v4.7h-2.8v2.3v1.4H43v-1.4
		V30.7z"/>
	<polygon class="st3" points="47.7,51.4 43,51.4 43,34.5 52.4,34.5 52.4,51.4 	"/>
	<path class="st4" d="M52.4,10.1V11l-0.9,1.9L48.6,11l-1.9,1.9h-2.8L43,12v-1.9l-0.9-1.9h8.4C51.5,8.2,52.4,9.1,52.4,10.1z"/>
	<path class="st1" d="M51.5,12.9v1.9c0,1.4-0.8,2.6-1.9,3.2c-0.6,0.3-1.2,0.5-1.9,0.5c-0.7,0-1.3-0.2-1.9-0.5
		c-1.1-0.6-1.9-1.9-1.9-3.2v-1.9h2.8l1.9-1.9L51.5,12.9z"/>
	<path class="st1" d="M49.6,17.6v2.8l-1.9,1.9l-1.9-1.9v-2.8C46.8,17.6,48.6,17.6,49.6,17.6z"/>
	<path class="st0" d="M47.7,51.4v2.8l-1.9,0.9h-5.6v-1.9c0-1,0.8-1.9,1.9-1.9H43H47.7z"/>
	<path class="st1" d="M43,30.7v2.3c0,0.8-0.6,1.4-1.4,1.4s-1.4-0.6-1.4-1.4v-2.3H43z"/>
	<path class="st5" d="M34.6,11c0,1.9-0.8,3.5-2,4.7c-1.1,1.1-1.7,2.5-1.7,4v0.6h-5.6v-0.6c0-1.6-0.7-3-1.8-4.1c-1.3-1.2-2-3-2-4.9
		c0.1-3.4,3-6.3,6.5-6.3C31.6,4.4,34.6,7.4,34.6,11z"/>
	<path class="st6" d="M30.8,20.4v2.8c0,0.5-0.4,0.9-0.9,0.9h-3.8c-0.5,0-0.9-0.4-0.9-0.9v-2.8H30.8z"/>
	<path class="st0" d="M15.8,53.3v1.9h-5.6l-1.9-0.9v-2.8H13h0.9C15,51.4,15.8,52.2,15.8,53.3z"/>
	<path class="st1" d="M15.8,30.7v2.3c0,0.8-0.6,1.4-1.4,1.4c-0.8,0-1.4-0.6-1.4-1.4v-2.3H15.8z"/>
	<path class="st2" d="M3.6,30.7H0.8v-4.7c0-3.1,2.5-5.6,5.6-5.6l1.9,1.9l1.9-1.9c3.1,0,5.6,2.5,5.6,5.6v4.7H13v2.3v1.4H3.6v-1.4
		V30.7z"/>
	<polygon class="st3" points="8.3,51.4 3.6,51.4 3.6,34.5 13,34.5 13,51.4 	"/>
	<path class="st4" d="M13,10.1V11l-0.9,1.9L9.2,11l-1.9,1.9H4.5L3.6,12v-1.9L2.7,8.2h8.4C12.1,8.2,13,9.1,13,10.1z"/>
	<path class="st1" d="M12.1,12.9v1.9c0,1.4-0.8,2.6-1.9,3.2c-0.6,0.3-1.2,0.5-1.9,0.5c-0.7,0-1.3-0.2-1.9-0.5
		c-1.1-0.6-1.9-1.9-1.9-3.2v-1.9h2.8L9.2,11L12.1,12.9z"/>
	<path class="st1" d="M10.2,17.6v2.8l-1.9,1.9l-1.9-1.9v-2.8C7.4,17.6,9.2,17.6,10.2,17.6z"/>
	<path class="st0" d="M8.3,51.4v2.8l-1.9,0.9H0.8v-1.9c0-1,0.8-1.9,1.9-1.9h0.9H8.3z"/>
	<path class="st1" d="M3.6,30.7v2.3c0,0.8-0.6,1.4-1.4,1.4s-1.4-0.6-1.4-1.4v-2.3H3.6z"/>
	<path class="st7" d="M10.2,18V19c-0.6,0.3-1.2,0.5-1.9,0.5c-0.7,0-1.3-0.2-1.9-0.5V18c0.6,0.3,1.2,0.5,1.9,0.5
		C9,18.6,9.6,18.4,10.2,18z"/>
	<path class="st7" d="M49.6,18V19c-0.6,0.3-1.2,0.5-1.9,0.5c-0.7,0-1.3-0.2-1.9-0.5V18c0.6,0.3,1.2,0.5,1.9,0.5
		C48.4,18.6,49,18.4,49.6,18z"/>
	<rect x="7.4" y="39.2" class="st4" width="1.9" height="12.2"/>
	<rect x="11.1" y="25.1" class="st8" width="1.9" height="9.4"/>
	<rect x="3.6" y="25.1" class="st8" width="1.9" height="9.4"/>
	<rect x="46.8" y="39.2" class="st4" width="1.9" height="12.2"/>
	<rect x="50.5" y="25.1" class="st8" width="1.9" height="9.4"/>
	<rect x="43" y="25.1" class="st8" width="1.9" height="9.4"/>
	<g>
		<rect x="22.4" y="19.5" class="st9" width="11.3" height="1.9"/>
		<path class="st9" d="M27.1,13.7v3.9h1.9v-3.9c1.1-0.4,1.9-1.4,1.9-2.6h-1.9c0,0.5-0.4,0.9-0.9,0.9s-0.9-0.4-0.9-0.9h-1.9
			C25.2,12.3,26,13.3,27.1,13.7z"/>
	</g>
	<rect x="27.1" y="-0.2" class="st5" width="1.9" height="1.9"/>
	<rect x="21.9" y="1.2" transform="matrix(0.866 -0.5 0.5 0.866 2.006 11.7031)" class="st5" width="1.9" height="1.9"/>
	<rect x="18.1" y="4.9" transform="matrix(0.4999 -0.8661 0.8661 0.4999 4.4354 19.453)" class="st5" width="1.9" height="1.9"/>
	<rect x="16.7" y="10.1" class="st5" width="1.9" height="1.9"/>
	<rect x="18.1" y="15.3" transform="matrix(0.8661 -0.4999 0.4999 0.8661 -5.5485 11.7002)" class="st5" width="1.9" height="1.9"/>
	<rect x="36" y="15.3" transform="matrix(0.4999 -0.8661 0.8661 0.4999 4.4364 40.0945)" class="st5" width="1.9" height="1.9"/>
	<rect x="37.4" y="10.1" class="st5" width="1.9" height="1.9"/>
	<rect x="36" y="4.9" transform="matrix(0.8661 -0.4999 0.4999 0.8661 2.0046 19.254)" class="st5" width="1.9" height="1.9"/>
	<rect x="32.2" y="1.2" transform="matrix(0.4999 -0.8661 0.8661 0.4999 14.7565 29.7733)" class="st5" width="1.9" height="1.9"/>
	<polygon class="st9" points="28.9,30.7 28.9,27 27.1,27 27.1,30.7 18.6,30.7 18.6,32.6 37.4,32.6 37.4,30.7 	"/>
	<rect x="27.1" y="34.5" class="st9" width="1.9" height="1.9"/>
	<rect x="30.8" y="34.5" class="st9" width="1.9" height="1.9"/>
	<rect x="34.6" y="34.5" class="st9" width="1.9" height="1.9"/>
	<rect x="23.3" y="34.5" class="st9" width="1.9" height="1.9"/>
	<rect x="19.6" y="34.5" class="st9" width="1.9" height="1.9"/>
</g>
</svg>
