<?xml version="1.0" encoding="utf-8"?>
<!-- Generator: Adobe Illustrator 26.4.1, SVG Export Plug-In . SVG Version: 6.00 Build 0)  -->
<svg version="1.1" id="Layer_1" xmlns:v="https://vecta.io/nano"
	 xmlns="http://www.w3.org/2000/svg" xmlns:xlink="http://www.w3.org/1999/xlink" x="0px" y="0px" viewBox="0 0 56 56"
	 style="enable-background:new 0 0 56 56;" xml:space="preserve">
<style type="text/css">
	.st0{fill:#00CCB3;}
	.st1{fill:#FFC477;}
	.st2{fill:#57565C;}
	.st3{fill:#3D9AE2;}
	.st4{fill:#FFB655;}
	.st5{fill:#1E81CE;}
	.st6{fill:#ED1C24;}
	.st7{fill:#EE8700;}
	.st8{fill:#FFA733;}
	.st9{fill:#FF9811;}
</style>
<g>
	<path class="st0" d="M15.2,21.1l-3.7-1.8H7.6L4,21.1c-1.3,0.7-2.1,2-2.1,3.5V29h1.9h11.6h1.9v-4.4c0,0,0,0,0,0
		C17.3,23.1,16.5,21.8,15.2,21.1z"/>
	<path class="st0" d="M49.9,21.1l-3.7-1.8h-3.9l-3.7,1.8c-1.3,0.7-2.1,2-2.1,3.4c0,0,0,0,0,0V29h1.9h3.9h9.7v-4.4
		C52.1,23.1,51.2,21.8,49.9,21.1z"/>
	<path class="st1" d="M38.8,40.5l4.1-1.2l6.2-1.8c1.5-0.4,3.1,0.5,3.6,2c0.1,0.5,0.2,1,0,1.5c-0.2,1-1,1.8-2,2.1l-20.2,5.8
		c-2,0.6-4,0.6-6,0.1l-1.7-0.4c-2.5-0.6-5.1-0.1-7.7,1.4l-0.8,0.5L8.1,39.6l4.2-2.4c1.7-1.1,3.7-2,5.7-2.5l0.1,0
		c3-0.7,6.1-0.7,9,0.1l9.6,2.4c0.8,0.2,1.4,0.7,1.8,1.3c0.2,0.4,0.4,0.8,0.4,1.2C38.9,40,38.9,40.2,38.8,40.5z"/>
	<path class="st2" d="M49.2,9.7v1l-1,1.9l-2.9-1.9l-1.9,1.9h-2.9l-1-1V9.7l-1-1.9h8.7C48.3,7.7,49.2,8.6,49.2,9.7z"/>
	<path class="st1" d="M48.2,12.6v1.9c0,1.4-0.8,2.7-1.9,3.3c-0.6,0.3-1.2,0.5-1.9,0.5s-1.4-0.2-1.9-0.5c-1.2-0.7-1.9-1.9-1.9-3.3
		v-1.9h2.9l1.9-1.9L48.2,12.6z"/>
	<path class="st1" d="M46.3,17.4v1.9c0,1.1-0.9,1.9-1.9,1.9s-1.9-0.9-1.9-1.9v-1.9C43.4,17.4,45.3,17.4,46.3,17.4z"/>
	<path class="st3" d="M36.6,24.6c-0.4-0.4-0.9-0.7-1.5-1l-2.6-1.2l-0.7,2.7l-2.9-1l-0.8,0.8l1.8,6h8.7V29v-0.1
		C38.5,27.2,37.8,25.6,36.6,24.6z"/>
	<path class="st4" d="M34.7,9.7c1.1,0,1.9,0.9,1.9,1.9s-0.9,1.9-1.9,1.9c-0.4,0-0.7-0.1-1-0.3c0-0.2,0-0.5,0-0.7V9.9
		C34,9.8,34.3,9.7,34.7,9.7z"/>
	<path class="st2" d="M35.6,3.9v2.9l-1.9,1.9h-0.5c-0.8,0-1.6-0.5-1.8-1.3l-0.5-1.6L29,7.1c-1.3,1-3,1.5-4.6,1.5h-4.2l-2.9-2.9
		l1-1.9L16.3,0h15.4C33.9,0,35.6,1.7,35.6,3.9z"/>
	<path class="st1" d="M33.7,9.9v2.6c0,0.2,0,0.5,0,0.7c-0.2,2.4-1.7,4.4-3.8,5.4c-0.9,0.4-1.9,0.7-2.9,0.7c-1,0-2-0.2-2.9-0.7
		c-0.7-0.3-1.3-0.8-1.9-1.3c-1.1-1.1-1.8-2.5-1.9-4.1c0-0.2,0-0.5,0-0.7V9.9V8.7h4.2c1.7,0,3.3-0.5,4.6-1.5l1.8-1.4l0.5,1.6
		c0.3,0.8,1,1.3,1.8,1.3h0.5V9.9z"/>
	<polygon class="st5" points="32.5,22.4 31.8,25.1 28.9,24.1 27.9,22.2 29.8,21.2 	"/>
	<path class="st1" d="M29.8,18.3v2.9l-1.9,1H26l-1.9-1v-2.9C25,18.3,28.9,18.3,29.8,18.3z"/>
	<polygon class="st6" points="28.1,24.9 29.8,30.9 24.1,30.9 25.8,24.9 26.9,26.1 	"/>
	<polygon class="st6" points="27.9,22.2 28.9,24.1 28.1,24.9 26.9,26.1 25.8,24.9 25,24.1 26,22.2 	"/>
	<polygon class="st5" points="26,22.2 25,24.1 22.1,25.1 21.4,22.4 24.1,21.2 	"/>
	<path class="st4" d="M20.2,12.6c0,0.2,0,0.5,0,0.7c-0.3,0.2-0.6,0.3-1,0.3c-1.1,0-1.9-0.9-1.9-1.9s0.9-1.9,1.9-1.9
		c0.3,0,0.7,0.1,1,0.3V12.6z"/>
	<path class="st3" d="M25,24.1l-2.9,1l-0.7-2.7l-2.6,1.2c-0.6,0.3-1.1,0.6-1.5,1c-1.2,1.1-1.9,2.6-1.9,4.3V29v1.9h8.7l1.8-6L25,24.1
		z"/>
	<polygon class="st5" points="14.3,50.5 15.3,52.1 8.6,56 0.9,42.6 5.2,40.1 7.6,38.8 8.1,39.6 	"/>
	<path class="st2" d="M14.4,9.7v1l-1,1.9l-2.9-1.9l-1.9,1.9H5.7l-1-1V9.7l-1-1.9h8.7C13.5,7.7,14.4,8.6,14.4,9.7z"/>
	<path class="st1" d="M13.4,12.6v1.9c0,1.4-0.8,2.7-1.9,3.3c-0.6,0.3-1.2,0.5-1.9,0.5s-1.4-0.2-1.9-0.5c-1.2-0.7-1.9-1.9-1.9-3.3
		v-1.9h2.9l1.9-1.9L13.4,12.6z"/>
	<path class="st1" d="M11.5,17.4v1.9c0,1.1-0.9,1.9-1.9,1.9s-1.9-0.9-1.9-1.9v-1.9C8.6,17.4,10.5,17.4,11.5,17.4z"/>
	<path class="st4" d="M11.5,17.8v1c-0.6,0.3-1.2,0.5-1.9,0.5s-1.4-0.2-1.9-0.5v-1c0.6,0.3,1.2,0.5,1.9,0.5S10.9,18.2,11.5,17.8z"/>
	<path class="st4" d="M29.8,18.7v1C29,20,28,20.3,26.9,20.3c-1,0-2-0.2-2.9-0.7v-1c0.9,0.4,1.9,0.7,2.9,0.7
		C28,19.3,29,19.1,29.8,18.7z"/>
	<path class="st4" d="M46.3,17.8v1c-0.6,0.3-1.2,0.5-1.9,0.5s-1.4-0.2-1.9-0.5v-1c0.6,0.3,1.2,0.5,1.9,0.5S45.7,18.2,46.3,17.8z"/>
	<path class="st7" d="M24.1,12.6L24.1,12.6c-0.5,0-1-0.4-1-1v0c0-0.5,0.4-1,1-1h0c0.5,0,1,0.4,1,1v0C25,12.1,24.6,12.6,24.1,12.6z"
		/>
	<path class="st7" d="M29.8,12.6L29.8,12.6c-0.5,0-1-0.4-1-1v0c0-0.5,0.4-1,1-1h0c0.5,0,1,0.4,1,1v0C30.8,12.1,30.4,12.6,29.8,12.6z
		"/>
	<path class="st8" d="M35.9,43.8c-0.3,0-0.6,0-0.9-0.1l-10.3-2.6l0.5-1.9l10.3,2.6c1,0.2,2-0.3,2.3-1.2c0.1-0.3,0.1-0.6,0.1-0.8
		c0-0.3-0.1-0.6-0.3-0.8c-0.3-0.4-0.7-0.8-1.2-0.9l-9.6-2.4c-2.8-0.7-5.7-0.7-8.6-0.1l-0.2,0c-1.6,0.4-3.5,1.2-5.4,2.3l-4.2,2.4
		l-1-1.7l4.2-2.4c2.1-1.3,4.1-2.1,6-2.6l0.2,0c3.1-0.7,6.3-0.7,9.4,0.1l9.6,2.4c1,0.3,1.9,0.9,2.4,1.8c0.3,0.5,0.5,1.1,0.5,1.6
		c0.1,0.5,0,1-0.2,1.6C39.1,42.8,37.6,43.8,35.9,43.8z"/>
	<rect x="2.8" y="31.9" class="st9" width="1.9" height="1.9"/>
	<rect x="2.8" y="35.7" class="st9" width="1.9" height="1.9"/>
	<rect x="8.6" y="31.9" class="st9" width="1.9" height="1.9"/>
	<rect x="47.2" y="31.9" class="st9" width="1.9" height="1.9"/>
	<rect x="41.4" y="31.9" class="st9" width="1.9" height="1.9"/>
	<rect x="41.4" y="35.7" class="st9" width="1.9" height="1.9"/>
</g>
</svg>
