<?xml version="1.0" encoding="utf-8"?>
<!-- Generator: Adobe Illustrator 26.4.1, SVG Export Plug-In . SVG Version: 6.00 Build 0)  -->
<svg version="1.1" id="Layer_1" xmlns:v="https://vecta.io/nano"
	 xmlns="http://www.w3.org/2000/svg" xmlns:xlink="http://www.w3.org/1999/xlink" x="0px" y="0px" viewBox="0 0 56 56"
	 style="enable-background:new 0 0 56 56;" xml:space="preserve">
<style type="text/css">
	.st0{fill:#00CCB3;}
	.st1{fill:#FF9811;}
	.st2{fill:#3E3D42;}
	.st3{fill:#FFC477;}
	.st4{fill:#787680;}
	.st5{fill:#57565C;}
	.st6{fill:#FFB655;}
	.st7{fill:none;stroke:#000000;stroke-width:2;stroke-linejoin:round;stroke-miterlimit:10;}
	.st8{fill:#00B39D;}
	.st9{fill:#3D9AE2;}
	.st10{fill:#1E81CE;}
</style>
<g>
	<path class="st0" d="M42,17.8l-1.9,1.9l-1.9-1.9c-1.3,0-2.5,0.4-3.4,1.2c-1.3,1-2.2,2.6-2.2,4.4v4.7h2.8v2.3v1.4h9.3v-1.4v-2.3h2.8
		v-4.7C47.7,20.3,45.1,17.8,42,17.8z"/>
	<path class="st0" d="M21.2,19c-0.9-0.7-2.1-1.2-3.4-1.2l-1.9,1.9L14,17.8c-3.1,0-5.6,2.5-5.6,5.6v4.7h2.8v2.3v1.4h9.3v-1.4v-2.3
		h2.8v-4.7C23.4,21.6,22.5,20,21.2,19z"/>
	<circle class="st1" cx="53.3" cy="8.4" r="1.9"/>
	<path class="st2" d="M47.7,50.5v1.9H42l-1.9-0.9v-2.8h4.7h0.9C46.8,48.6,47.7,49.5,47.7,50.5z"/>
	<path class="st3" d="M47.7,28.1v2.3c0,0.8-0.6,1.4-1.4,1.4s-1.4-0.6-1.4-1.4v-2.3H47.7z"/>
	<polygon class="st4" points="40.2,48.6 35.5,48.6 35.5,31.8 44.9,31.8 44.9,48.6 	"/>
	<path class="st5" d="M44.9,7.5v0.9l-0.9,1.9l-2.8-1.9l-1.9,1.9h-2.8l-0.9-0.9V7.5l-0.9-1.9H43C44,5.6,44.9,6.5,44.9,7.5z"/>
	<path class="st3" d="M43.9,10.3v1.9c0,1.4-0.7,2.6-1.9,3.2c-0.6,0.3-1.2,0.5-1.9,0.5s-1.3-0.2-1.9-0.5c-1.1-0.6-1.9-1.9-1.9-3.2
		v-1.9h2.8l1.9-1.9L43.9,10.3z"/>
	<path class="st3" d="M42,15v2.8l-1.9,1.9l-1.9-1.9V15C39.2,15,41.1,15,42,15z"/>
	<path class="st2" d="M40.2,48.6v2.8l-1.9,0.9h-4.7h-0.9v-1.9c0-1,0.8-1.9,1.9-1.9h0.9H40.2z"/>
	<path class="st2" d="M35.5,54.2v1.9h-5.6L28,55.2v-2.8h4.7h0.9C34.7,52.4,35.5,53.2,35.5,54.2z"/>
	<path class="st3" d="M35.5,28.1v2.3c0,0.8-0.6,1.4-1.4,1.4s-1.4-0.6-1.4-1.4v-2.3H35.5z"/>
	<polygon class="st4" points="28,52.4 23.4,52.4 23.4,50.5 23.4,31.8 32.7,31.8 32.7,50.5 32.7,52.4 	"/>
	<path class="st5" d="M32.7,3.8v1.9l-0.9,1.9L29,5.6l-1.9,1.9h-2.8l-0.9-0.9V4.7l-0.9-2.8h8.4C31.9,1.9,32.7,2.7,32.7,3.8z"/>
	<path class="st3" d="M31.8,7.5v2.8c0,1.4-0.7,2.6-1.9,3.2C29.4,13.9,28.7,14,28,14s-1.3-0.2-1.9-0.5c-1.1-0.6-1.9-1.9-1.9-3.2V7.5
		h2.8L29,5.6L31.8,7.5z"/>
	<path class="st3" d="M29.9,13.1v2.8L28,17.8l-1.9-1.9v-2.8C27.1,13.1,29,13.1,29.9,13.1z"/>
	<path class="st2" d="M28,52.4v2.8l-1.9,0.9h-5.6v-1.9c0-1,0.8-1.9,1.9-1.9h0.9H28z"/>
	<path class="st2" d="M23.4,50.5v1.9h-0.9h-4.7l-1.9-0.9v-2.8h4.7h0.9C22.5,48.6,23.4,49.5,23.4,50.5z"/>
	<path class="st3" d="M23.4,28.1v2.3c0,0.8-0.6,1.4-1.4,1.4s-1.4-0.6-1.4-1.4v-2.3H23.4z"/>
	<polygon class="st4" points="15.9,48.6 11.2,48.6 11.2,31.8 20.6,31.8 20.6,48.6 	"/>
	<path class="st5" d="M20.6,7.5v0.9l-0.9,1.9l-2.8-1.9L15,10.3h-2.8l-0.9-0.9V7.5l-0.9-1.9h8.4C19.7,5.6,20.6,6.5,20.6,7.5z"/>
	<path class="st3" d="M19.6,10.3v1.9c0,1.4-0.7,2.6-1.9,3.2c-0.6,0.3-1.2,0.5-1.9,0.5s-1.3-0.2-1.9-0.5c-1.1-0.6-1.9-1.9-1.9-3.2
		v-1.9H15l1.9-1.9L19.6,10.3z"/>
	<path class="st3" d="M17.8,15v2.8l-1.9,1.9L14,17.8V15C15,15,16.8,15,17.8,15z"/>
	<path class="st2" d="M15.9,48.6v2.8L14,52.4H8.4v-1.9c0-1,0.8-1.9,1.9-1.9h0.9H15.9z"/>
	<path class="st3" d="M11.2,28.1v2.3c0,0.8-0.6,1.4-1.4,1.4s-1.4-0.6-1.4-1.4v-2.3H11.2z"/>
	<circle class="st1" cx="2.8" cy="3.8" r="1.9"/>
	<path class="st6" d="M17.8,15.4v0.9c-0.6,0.3-1.2,0.5-1.9,0.5c-0.7,0-1.3-0.2-1.9-0.5v-0.9c0.6,0.3,1.2,0.5,1.9,0.5
		C16.6,15.9,17.2,15.7,17.8,15.4z"/>
	<path class="st6" d="M29.9,13.5v0.9C29.4,14.8,28.7,15,28,15c-0.7,0-1.3-0.2-1.9-0.5v-0.9c0.6,0.3,1.2,0.5,1.9,0.5
		C28.7,14,29.4,13.9,29.9,13.5z"/>
	<path class="st6" d="M42,15.4v0.9c-0.6,0.3-1.2,0.5-1.9,0.5s-1.3-0.2-1.9-0.5v-0.9c0.6,0.3,1.2,0.5,1.9,0.5S41.5,15.7,42,15.4z"/>
	<rect x="27.1" y="36.5" class="st5" width="1.9" height="15.9"/>
	<rect x="15" y="36.5" class="st5" width="1.9" height="12.1"/>
	<path class="st7" d="M20.6,31.8"/>
	<rect x="11.2" y="22.5" class="st8" width="1.9" height="9.3"/>
	<rect x="18.7" y="22.5" class="st8" width="1.9" height="9.3"/>
	<rect x="39.2" y="36.5" class="st5" width="1.9" height="12.1"/>
	<rect x="43" y="22.5" class="st8" width="1.9" height="9.3"/>
	<rect x="35.5" y="22.5" class="st8" width="1.9" height="9.3"/>
	<path class="st7" d="M35.5,31.8"/>
	<g>
		<polygon class="st1" points="50.5,20.6 52.3,20.6 52.3,18.7 54.2,18.7 54.2,16.9 52.3,16.9 52.3,15 50.5,15 50.5,16.9 48.6,16.9 
			48.6,18.7 50.5,18.7 		"/>
		<polygon class="st1" points="6.5,10.3 4.7,10.3 4.7,12.2 2.8,12.2 2.8,14 4.7,14 4.7,15.9 6.5,15.9 6.5,14 8.4,14 8.4,12.2 
			6.5,12.2 		"/>
		<polygon class="st1" points="3.7,38.3 1.9,38.3 1.9,40.2 0,40.2 0,42.1 1.9,42.1 1.9,44 3.7,44 3.7,42.1 5.6,42.1 5.6,40.2 
			3.7,40.2 		"/>
		<polygon class="st1" points="56.1,33.7 54.2,33.7 54.2,31.8 52.3,31.8 52.3,33.7 50.5,33.7 50.5,35.5 52.3,35.5 52.3,37.4 
			54.2,37.4 54.2,35.5 56.1,35.5 		"/>
	</g>
	<path class="st9" d="M34.9,19c-0.9-1.8-2.8-3-5-3L28,17.8l-1.9-1.9c-2.2,0-4.1,1.2-5,3c-0.4,0.8-0.6,1.6-0.6,2.6v0.9v5.6h2.8v2.3
		v1.4h9.3v-1.4v-2.3h2.8v-5.6v-0.9C35.5,20.6,35.3,19.7,34.9,19z"/>
	<rect x="30.8" y="20.6" class="st10" width="1.9" height="11.2"/>
	<rect x="23.4" y="20.6" class="st10" width="1.9" height="11.2"/>
</g>
</svg>
