<?xml version="1.0" encoding="utf-8"?>
<!-- Generator: Adobe Illustrator 26.4.1, SVG Export Plug-In . SVG Version: 6.00 Build 0)  -->
<svg version="1.1" id="Layer_1" xmlns:v="https://vecta.io/nano"
	 xmlns="http://www.w3.org/2000/svg" xmlns:xlink="http://www.w3.org/1999/xlink" x="0px" y="0px" viewBox="0 0 56 56"
	 style="enable-background:new 0 0 56 56;" xml:space="preserve">
<style type="text/css">
	.st0{fill:#FF9811;}
	.st1{fill:#FFC477;}
	.st2{fill:#FFD422;}
	.st3{fill:#FFB655;}
	.st4{fill:#EE8700;}
	.st5{fill:#FFA733;}
	.st6{fill:#3D9AE2;}
	.st7{fill:#1E81CE;}
</style>
<g>
	<path class="st0" d="M37.3,14.9c-0.2,0.9-0.6,1.8-1.1,2.5l2,2.6l-2.7,2.7l-2.6-2c-0.8,0.5-1.6,0.8-2.5,1.1l-0.5,3.2h-3.9l-0.5-3.2
		c-0.9-0.2-1.8-0.6-2.5-1.1l-2.6,2l-2.7-2.7l2-2.6c-0.5-0.8-0.8-1.6-1.1-2.5l-3.2-0.5v-3.9l3.2-0.5c0.2-0.9,0.6-1.8,1.1-2.5l-2-2.6
		l2.7-2.7l2.6,2c0.8-0.5,1.6-0.8,2.5-1.1L26.1,0h3.9l0.5,3.2c0.9,0.2,1.8,0.6,2.5,1.1l2.6-2L38.2,5l-2,2.6c0.5,0.8,0.8,1.6,1.1,2.5
		l3.2,0.5v3.9L37.3,14.9z"/>
	<path class="st1" d="M54.1,18.3v23.2l-3.9,4.8v1.9H38.6v-7.7l6.7-11.5c0,0,0.1-0.1,0.1-0.1c0.3-0.4,0.6-0.7,1-0.9
		c0.4-0.3,0.9-0.4,1.4-0.4c0.2,0,0.3,0,0.5,0v-9.3c0-0.8,0.3-1.5,0.8-2c0.5-0.5,1.2-0.8,2-0.8C52.8,15.4,54.1,16.7,54.1,18.3z"/>
	<path class="st1" d="M7.7,27.7c0.2,0,0.3,0,0.5,0c0.5,0,1,0.1,1.4,0.4c0.4,0.2,0.7,0.5,1,0.9c0,0,0.1,0.1,0.1,0.1l6.7,11.5v7.7H5.8
		v-1.9l-3.9-4.8V18.3c0-1.6,1.3-2.9,2.9-2.9c0.8,0,1.5,0.3,2,0.8s0.8,1.2,0.8,2V27.7z"/>
	<circle class="st2" cx="28" cy="12.6" r="4.8"/>
	<path class="st3" d="M18.3,48.3h-1.9v-7.4L9.9,29.5c0,0-0.1-0.1-0.1-0.1c-0.2-0.2-0.4-0.4-0.6-0.6c-0.3-0.2-0.6-0.3-1-0.3
		c0,0-0.2,0-0.2,0c0,0-0.1,0-0.1,0c-0.2,0-0.4,0.1-0.6,0.2c-0.9,0.5-1.2,1.7-0.7,2.6l5.5,9.6l-1.7,1l-5.5-9.6
		c-1.1-1.8-0.4-4.2,1.4-5.3c0.4-0.2,0.8-0.4,1.3-0.5c0.3-0.1,0.5-0.1,0.7-0.1c0.7,0,1.4,0.2,1.9,0.5c0.5,0.3,0.9,0.7,1.3,1.2
		c0.1,0.1,0.1,0.1,0.1,0.2l6.7,11.6c0.1,0.1,0.1,0.3,0.1,0.5V48.3z"/>
	<path class="st3" d="M39.6,48.3h-1.9v-7.7c0-0.2,0-0.3,0.1-0.5l6.7-11.5c0-0.1,0.1-0.1,0.1-0.2c0.3-0.5,0.8-0.9,1.3-1.2
		c0.6-0.3,1.2-0.5,1.9-0.5c0.2,0,0.4,0,0.7,0.1c0.4,0.1,0.9,0.2,1.3,0.4c1.9,1.1,2.5,3.4,1.4,5.3L45.6,42l-1.7-1l5.5-9.6
		c0.5-0.9,0.2-2.1-0.7-2.6c-0.2-0.1-0.4-0.2-0.6-0.2c0,0-0.1,0-0.1,0c-0.1,0-0.2,0-0.2,0c-0.3,0-0.7,0.1-1,0.3
		c-0.3,0.2-0.5,0.4-0.7,0.6c0,0,0,0.1-0.1,0.1l-6.5,11.3V48.3z"/>
	<rect x="27" y="2.9" class="st4" width="1.9" height="1.9"/>
	<rect x="20.9" y="5.4" transform="matrix(0.7071 -0.7071 0.7071 0.7071 1.8708 17.3307)" class="st4" width="1.9" height="1.9"/>
	<rect x="18.3" y="11.6" class="st4" width="1.9" height="1.9"/>
	<rect x="20.9" y="17.7" transform="matrix(0.7071 -0.7071 0.7071 0.7071 -6.819 20.9301)" class="st4" width="1.9" height="1.9"/>
	<rect x="27" y="20.3" class="st4" width="1.9" height="1.9"/>
	<rect x="33.2" y="17.7" transform="matrix(0.7072 -0.707 0.707 0.7072 -3.2214 29.6136)" class="st4" width="1.9" height="1.9"/>
	<rect x="35.7" y="11.6" class="st4" width="1.9" height="1.9"/>
	<rect x="33.2" y="5.4" transform="matrix(0.7071 -0.7071 0.7071 0.7071 5.4702 26.0206)" class="st4" width="1.9" height="1.9"/>
	<rect x="43.4" y="18.3" class="st5" width="1.9" height="1.9"/>
	<rect x="43.4" y="22.2" class="st5" width="1.9" height="1.9"/>
	<rect x="47.3" y="7.7" class="st5" width="1.9" height="1.9"/>
	<rect x="47.3" y="11.6" class="st5" width="1.9" height="1.9"/>
	<rect x="10.6" y="18.3" class="st5" width="1.9" height="1.9"/>
	<rect x="10.6" y="22.2" class="st5" width="1.9" height="1.9"/>
	<rect x="6.8" y="7.7" class="st5" width="1.9" height="1.9"/>
	<rect x="6.8" y="11.6" class="st5" width="1.9" height="1.9"/>
	<rect x="22.2" y="40.6" class="st5" width="1.9" height="1.9"/>
	<rect x="22.2" y="44.4" class="st5" width="1.9" height="1.9"/>
	<g>
		<path class="st5" d="M54.8,4.1l-2.9-2.9l-1.4,1.4l1.2,1.2h-5.4c-1.6,0-2.9,1.3-2.9,2.9v9.7h1.9V6.8c0-0.5,0.4-1,1-1h5.4L50.5,7
			l1.4,1.4l2.9-2.9C55.1,5.1,55.1,4.5,54.8,4.1z"/>
		<path class="st5" d="M9.7,3.9H4.3l1.2-1.2L4.1,1.2L1.2,4.1c-0.4,0.4-0.4,1,0,1.4l2.9,2.9L5.5,7L4.3,5.8h5.4c0.5,0,1,0.4,1,1v9.7
			h1.9V6.8C12.6,5.2,11.3,3.9,9.7,3.9z"/>
		<path class="st5" d="M22.5,28.3l-2.9,2.9l1.4,1.4l1.2-1.2v7.3h1.9v-7.3l1.2,1.2l1.4-1.4l-2.9-2.9C23.5,27.9,22.9,27.9,22.5,28.3z"
			/>
		<path class="st5" d="M32.1,28.3l-2.9,2.9l1.4,1.4l1.2-1.2v7.3h1.9v-7.3l1.2,1.2l1.4-1.4l-2.9-2.9C33.1,27.9,32.5,27.9,32.1,28.3z"
			/>
	</g>
	<rect x="31.9" y="40.6" class="st5" width="1.9" height="1.9"/>
	<rect x="31.9" y="44.4" class="st5" width="1.9" height="1.9"/>
	<polygon class="st6" points="36.7,56 36.7,48.3 38.6,48.3 50.2,48.3 52.1,48.3 52.1,56 	"/>
	<polygon class="st6" points="19.3,48.3 19.3,56 3.9,56 3.9,48.3 5.8,48.3 17.4,48.3 	"/>
	<rect x="14.5" y="51.2" class="st7" width="1.9" height="1.9"/>
	<rect x="39.6" y="51.2" class="st7" width="1.9" height="1.9"/>
</g>
</svg>
